<svg width="36" height="37" viewBox="0 0 36 37" fill="none" xmlns="http://www.w3.org/2000/svg">
<g id="List - &#208;&#161;&#208;&#190;&#209;&#134;. &#209;&#129;&#208;&#181;&#209;&#130;&#208;&#184; &#226;&#134;&#146; Item &#226;&#134;&#146; Link - facebook" clip-path="url(#clip0_12075_331)">
<path id="Vector" fill-rule="evenodd" clip-rule="evenodd" d="M18 36.52C27.9411 36.52 36 28.4611 36 18.52C36 8.57891 27.9411 0.52002 18 0.52002C8.05889 0.52002 0 8.57891 0 18.52C0 28.4611 8.05889 36.52 18 36.52ZM19.2352 9.88528C18.3294 9.91051 17.3736 10.1286 16.6985 10.77C16.1409 11.2858 15.86 12.0364 15.7969 12.7868C15.7776 13.3235 15.7804 13.8615 15.7831 14.3994C15.7852 14.8028 15.7873 15.2061 15.7801 15.6086C15.5321 15.6104 15.2834 15.6099 15.0345 15.6093C14.7027 15.6086 14.3707 15.6079 14.04 15.6128C14.04 15.9339 14.0405 16.2555 14.0409 16.5775C14.0419 17.2222 14.0428 17.8682 14.04 18.5142C14.3707 18.519 14.7027 18.5184 15.0346 18.5177C15.2834 18.5171 15.5321 18.5166 15.7801 18.5184C15.7856 19.7988 15.7846 21.079 15.7836 22.3593C15.7823 23.9596 15.781 25.5598 15.7927 27.16C16.4732 27.1552 17.1522 27.1559 17.8314 27.1566C18.3409 27.1571 18.8505 27.1576 19.3609 27.1558C19.3651 25.7155 19.364 24.2763 19.363 22.8371C19.3619 21.3979 19.3609 19.9587 19.3651 18.5184C19.7083 18.5166 20.0515 18.5171 20.3947 18.5177C20.8524 18.5184 21.31 18.519 21.7676 18.5142C21.9102 17.5498 22.0317 16.5769 22.0987 15.6001C21.646 15.598 21.1932 15.598 20.7403 15.598C20.2875 15.598 19.8347 15.598 19.3819 15.5959C19.3819 15.4271 19.3816 15.2583 19.3814 15.0895C19.3806 14.5833 19.3798 14.0771 19.3861 13.5708C19.4574 13.1808 19.8598 12.883 20.2498 12.9083H22.103C22.1072 11.8978 22.1072 10.8915 22.103 9.88106C21.8641 9.88106 21.6251 9.88081 21.3862 9.88056C20.6692 9.87977 19.9522 9.87898 19.2352 9.88528Z" fill="white"/>
</g>
<defs>
<clipPath id="clip0_12075_331">
<rect width="36" height="36" fill="white" transform="translate(0 0.52002)"/>
</clipPath>
</defs>
</svg>
