<svg width="73" height="48" viewBox="0 0 73 48" fill="none" xmlns="http://www.w3.org/2000/svg">
<g id="fontisto:paypal" opacity="0.9" clip-path="url(#clip0_11582_9431)">
<path id="Vector" d="M67.3282 47.9354H5.70599C4.44882 47.9354 3.24314 47.436 2.35418 46.547C1.46523 45.6581 0.96582 44.4524 0.96582 43.1952L0.96582 5.27386C0.96582 4.01669 1.46523 2.81101 2.35418 1.92206C3.24314 1.0331 4.44882 0.533691 5.70599 0.533691L67.3282 0.533691C68.5854 0.533691 69.7911 1.0331 70.68 1.92206C71.569 2.81101 72.0684 4.01669 72.0684 5.27386V43.1952C72.0684 44.4524 71.569 45.6581 70.68 46.547C69.7911 47.436 68.5854 47.9354 67.3282 47.9354ZM28.68 20.9263C28.6259 20.927 28.5727 20.9398 28.5242 20.9637C28.4756 20.9876 28.4331 21.0221 28.3996 21.0646C28.3217 21.1438 28.2772 21.2498 28.2751 21.3608C28.2751 21.4023 28.4687 21.9928 28.8834 23.2036L29.7801 25.8225L30.1969 27.0431C30.6643 28.4125 30.9086 29.1406 30.9296 29.2275C30.0101 30.366 29.1788 31.573 28.443 32.838L28.368 32.9762L28.364 33.0256C28.364 33.2231 28.524 33.385 28.7235 33.385L28.7768 33.3811H28.7748H31.1805C31.2926 33.3804 31.4027 33.3512 31.5005 33.2963C31.5983 33.2414 31.6805 33.1625 31.7394 33.0671L31.7414 33.0651L39.7049 21.5721C39.7467 21.517 39.7696 21.4498 39.77 21.3806L39.7681 21.3509V21.3529C39.7654 21.242 39.7209 21.1362 39.6436 21.0567C39.6104 21.0143 39.5682 20.98 39.52 20.9561C39.4718 20.9321 39.4189 20.9193 39.3651 20.9184H36.9575C36.8451 20.9191 36.7347 20.9483 36.6366 21.0032C36.5386 21.0581 36.456 21.137 36.3966 21.2324L36.3946 21.2344L33.0765 26.1049L31.7038 21.4201C31.6686 21.2773 31.5867 21.1504 31.4711 21.0595C31.3556 20.9686 31.2129 20.919 31.0659 20.9184L31.0145 20.9204H31.0165L28.68 20.9263ZM56.2876 20.7071H56.2362C54.7391 20.7071 53.3941 21.3569 52.4658 22.3878L52.4618 22.3918C51.4466 23.4418 50.8799 24.8458 50.8818 26.3064V26.3597V26.3577C50.8778 26.415 50.8778 26.4841 50.8778 26.5513C50.8778 27.6119 51.2906 28.5777 51.9621 29.2947L51.9602 29.2927C52.3422 29.6648 52.7968 29.954 53.2957 30.1422C53.7946 30.3305 54.327 30.4138 54.8596 30.3869H54.8497C55.5153 30.379 56.1473 30.2427 56.724 29.9978L56.6924 30.0096C57.2751 29.7904 57.7689 29.4487 58.1579 29.0142L58.1619 29.0103C58.1421 29.1228 58.1204 29.2176 58.0947 29.3085L58.0987 29.2887C58.0634 29.4097 58.0422 29.5343 58.0355 29.6601V29.664C58.0355 29.9958 58.1718 30.1637 58.4424 30.1637H60.5972C60.6813 30.1713 60.7661 30.1619 60.8465 30.1361C60.927 30.1103 61.0015 30.0686 61.0655 30.0136C61.1296 29.9585 61.182 29.8912 61.2196 29.8155C61.2572 29.7399 61.2793 29.6575 61.2845 29.5732V29.5712L62.5643 21.4201C62.5764 21.3586 62.5743 21.2951 62.5582 21.2346C62.5422 21.174 62.5125 21.1179 62.4715 21.0705C62.436 21.0215 62.3893 20.9817 62.3354 20.9542C62.2815 20.9268 62.2219 20.9125 62.1614 20.9125H59.7854C59.4951 20.9125 59.3114 21.2581 59.2521 21.9435C58.9045 21.4974 58.4473 21.1489 57.925 20.9319C57.4027 20.7149 56.8332 20.6367 56.2718 20.7051L56.2876 20.7031V20.7071ZM20.8094 20.7071H20.7541C19.2589 20.7071 17.9139 21.3569 16.9896 22.3878L16.9856 22.3918C15.9703 23.4418 15.4037 24.8458 15.4056 26.3064V26.3597V26.3577C15.3794 26.8946 15.4618 27.4312 15.6477 27.9355C15.8337 28.4398 16.1195 28.9014 16.4879 29.2927L16.4859 29.2907C17.1851 29.9701 18.141 30.3889 19.1957 30.3889L19.3853 30.3849H19.3755C20.0312 30.375 20.6533 30.2388 21.2202 29.9958L21.1886 30.0077C21.7791 29.7825 22.2808 29.4428 22.6857 29.0103L22.6876 29.0083C22.6146 29.2018 22.5691 29.427 22.5632 29.6601V29.664C22.5632 29.9958 22.7015 30.1637 22.9701 30.1637H25.1229C25.2071 30.1713 25.2919 30.1619 25.3723 30.1361C25.4528 30.1103 25.5272 30.0686 25.5913 30.0136C25.6554 29.9585 25.7078 29.8912 25.7454 29.8155C25.783 29.7399 25.805 29.6575 25.8102 29.5732V29.5712L27.0921 21.4201C27.1028 21.359 27.0999 21.2964 27.0835 21.2366C27.0671 21.1768 27.0377 21.1214 26.9973 21.0744C26.9617 21.0255 26.9151 20.9857 26.8612 20.9582C26.8073 20.9307 26.7477 20.9164 26.6872 20.9164H24.3112C24.0208 20.9164 23.8371 21.2621 23.7799 21.9474C23.4286 21.5049 22.9706 21.1589 22.4489 20.942C21.9272 20.725 21.359 20.6442 20.7975 20.7071L20.8133 20.7051L20.8094 20.7071ZM65.3768 16.3343L65.3452 16.3323C65.2509 16.3319 65.16 16.3671 65.0904 16.4308C65.0209 16.4945 64.9779 16.582 64.97 16.6759L62.9396 29.6699C62.9229 29.7325 62.9227 29.7983 62.939 29.8609C62.9552 29.9235 62.9874 29.9809 63.0324 30.0274C63.0697 30.0717 63.1163 30.1071 63.1689 30.1314C63.2215 30.1556 63.2787 30.168 63.3366 30.1677H65.4104L65.4736 30.1716C65.6308 30.1716 65.7815 30.1092 65.8926 29.9981C66.0037 29.8869 66.0661 29.7362 66.0661 29.5791V29.5751L68.0925 16.8063L68.0945 16.7628C68.0944 16.6502 68.0576 16.5407 67.9898 16.4508V16.4528C67.9544 16.4149 67.9116 16.3847 67.864 16.364C67.8165 16.3433 67.7652 16.3325 67.7133 16.3323L67.6837 16.3343H65.3768ZM42.3278 16.3343C42.243 16.3231 42.1568 16.33 42.0749 16.3544C41.9929 16.3789 41.917 16.4203 41.8522 16.476C41.7873 16.5317 41.7349 16.6005 41.6985 16.6778C41.662 16.7552 41.6422 16.8393 41.6404 16.9248L39.612 29.668C39.6016 29.7285 39.6045 29.7907 39.6205 29.85C39.6365 29.9094 39.6653 29.9645 39.7049 30.0116C39.7397 30.0608 39.786 30.1008 39.8396 30.1283C39.8932 30.1558 39.9527 30.17 40.013 30.1696H42.5904C42.7061 30.1695 42.8181 30.1293 42.9075 30.0558C42.9968 29.9824 43.0579 29.8802 43.0803 29.7667V29.7628L43.6431 26.1405C43.6599 25.9819 43.7387 25.8363 43.8624 25.7356C43.9971 25.6267 44.1609 25.5564 44.3325 25.5322H44.3384C44.4984 25.5025 44.682 25.4867 44.8697 25.4848C45.0356 25.4848 45.2351 25.4946 45.4642 25.5164C45.7146 25.5452 45.9666 25.5584 46.2186 25.5559C47.6657 25.5582 49.06 25.0128 50.1214 24.0291L50.1174 24.0331C50.6467 23.4718 51.0553 22.8082 51.3183 22.0829C51.5812 21.3577 51.6928 20.5863 51.6461 19.8163V19.8321C51.6886 19.3229 51.6013 18.8112 51.3924 18.3449C51.1834 17.8786 50.8596 17.4729 50.4512 17.1658L50.4433 17.1598C49.5009 16.5639 48.3968 16.2747 47.2832 16.3323H47.2951L42.3278 16.3343ZM6.81203 16.3343C6.72941 16.3254 6.64585 16.334 6.56677 16.3595C6.4877 16.3851 6.41488 16.4269 6.35304 16.4825C6.2912 16.538 6.24173 16.6058 6.20784 16.6817C6.17394 16.7576 6.15639 16.8397 6.15631 16.9228V16.9268L4.12593 29.6699C4.11534 29.7305 4.11817 29.7927 4.13421 29.8521C4.15025 29.9114 4.17911 29.9666 4.21876 30.0136C4.25366 30.0627 4.29987 30.1028 4.3535 30.1303C4.40713 30.1578 4.4666 30.1719 4.52687 30.1716H6.90486C6.98964 30.1827 7.07581 30.1759 7.15775 30.1514C7.2397 30.127 7.31557 30.0856 7.38043 30.0299C7.44528 29.9741 7.49766 29.9054 7.53415 29.828C7.57064 29.7507 7.59041 29.6665 7.59218 29.5811L8.15508 26.1464C8.17219 25.9884 8.2501 25.8432 8.37234 25.7415C8.5071 25.6326 8.67085 25.5623 8.8424 25.5381H8.84833C9.0231 25.5073 9.20018 25.4914 9.37765 25.4907H9.37962C9.54553 25.4907 9.74303 25.5006 9.97214 25.5223C10.2219 25.551 10.4732 25.5642 10.7246 25.5618C12.2316 25.5618 13.6023 24.9831 14.6294 24.0351L14.6254 24.039C15.1545 23.4776 15.563 22.8139 15.8259 22.0887C16.0888 21.3635 16.2005 20.5922 16.1541 19.8222V19.838C16.1966 19.3288 16.1093 18.8171 15.9003 18.3508C15.6914 17.8845 15.3676 17.4788 14.9592 17.1717L14.9513 17.1658C14.0129 16.572 12.9142 16.2823 11.805 16.3362H11.8169L6.81203 16.3343ZM56.1572 27.8588L56.0624 27.8608C55.5578 27.8612 55.0693 27.6828 54.6838 27.3571L54.6877 27.3591C54.5095 27.1949 54.3673 26.9955 54.27 26.7735C54.1728 26.5515 54.1227 26.3117 54.1229 26.0694L54.1249 25.9805V25.9272C54.1249 25.1885 54.4231 24.519 54.907 24.0331C55.383 23.5452 56.0466 23.2431 56.7813 23.2431H56.8465H56.8425L56.9097 23.2411C57.441 23.2411 57.9249 23.4366 58.2962 23.7585L58.2942 23.7566C58.4776 23.9264 58.6239 24.1323 58.7238 24.3614C58.8238 24.5905 58.8752 24.8378 58.8749 25.0878L58.8729 25.1826V25.1786V25.226C58.8729 25.9548 58.5707 26.6145 58.0829 27.0826C57.8365 27.3281 57.5441 27.5226 57.2225 27.6551C56.9009 27.7876 56.5564 27.8555 56.2085 27.8548H56.1592L56.1572 27.8588ZM20.6474 27.8588L20.5486 27.8608C20.0312 27.8608 19.5552 27.6712 19.1918 27.3571L19.1937 27.3591C19.0201 27.193 18.8819 26.9935 18.7875 26.7725C18.6931 26.5515 18.6445 26.3136 18.6447 26.0733L18.6467 25.9805V25.9272C18.6467 25.1885 18.9449 24.519 19.4288 24.0331C19.9048 23.5452 20.5664 23.2431 21.3011 23.2431H21.3703H21.3663L21.4335 23.2411C21.9648 23.2411 22.4487 23.4366 22.82 23.7585L22.818 23.7566C23.0009 23.9263 23.1467 24.1319 23.2463 24.3607C23.3459 24.5894 23.3971 24.8363 23.3967 25.0858L23.3947 25.1826V25.1786V25.2478C23.3947 25.9766 23.0925 26.6323 22.6047 27.1004C22.0985 27.5876 21.423 27.8594 20.7205 27.8588H20.6474ZM44.1646 22.8026L44.6959 19.4628C44.7001 19.4136 44.714 19.3657 44.7367 19.3219C44.7595 19.2781 44.7906 19.2393 44.8284 19.2075C44.8662 19.1758 44.9099 19.1518 44.957 19.137C45.004 19.1221 45.0536 19.1167 45.1027 19.1211H45.6636L45.7841 19.1191C46.1258 19.1191 46.4635 19.1428 46.7934 19.1882L46.7559 19.1843C47.062 19.2396 47.3286 19.3778 47.538 19.5753C47.6573 19.6881 47.7523 19.8241 47.8172 19.9749C47.882 20.1257 47.9154 20.2881 47.9152 20.4523L47.9133 20.5273V20.5234C47.9548 20.8533 47.9141 21.1884 47.7949 21.4989C47.6756 21.8094 47.4816 22.0856 47.2299 22.3029L47.2279 22.3049C46.5985 22.6641 45.877 22.829 45.1541 22.7789H45.1659L44.1685 22.8105L44.1646 22.8026ZM8.65477 22.8026L9.18606 19.4628C9.19003 19.4135 9.20375 19.3655 9.22641 19.3216C9.24907 19.2777 9.28023 19.2387 9.31808 19.2069C9.35593 19.1751 9.39972 19.1512 9.4469 19.1364C9.49408 19.1217 9.54372 19.1165 9.59293 19.1211H10.1835C10.8158 19.0748 11.4488 19.2018 12.0144 19.4884L11.9946 19.4786C12.3679 19.7176 12.4943 20.2251 12.3699 20.9915C12.3603 21.2776 12.2822 21.5572 12.1419 21.8067C12.0017 22.0563 11.8035 22.2685 11.564 22.4254L11.5581 22.4293C10.622 22.774 9.61964 22.901 8.62712 22.8006L8.65477 22.8026Z" fill="#006FE0"/>
</g>
<defs>
<clipPath id="clip0_11582_9431">
<rect width="71.1025" height="47.4017" fill="white" transform="translate(0.96582 0.533691)"/>
</clipPath>
</defs>
</svg>
