<svg width="61" height="48" viewBox="0 0 61 48" fill="none" xmlns="http://www.w3.org/2000/svg">
<g id="cib:cc-mastercard" opacity="0.9" clip-path="url(#clip0_11582_9429)">
<g id="Vector">
<path d="M50.6226 40.2933C50.6226 41.0018 50.1446 41.5116 49.4567 41.5116C48.7483 41.5116 48.2909 40.97 48.2909 40.2933C48.2909 39.6167 48.7483 39.0751 49.4567 39.0751C50.1446 39.0751 50.6226 39.6167 50.6226 40.2933ZM18.259 39.0751C17.5186 39.0751 17.0932 39.6167 17.0932 40.2933C17.0932 40.97 17.5205 41.5116 18.259 41.5116C18.9356 41.5116 19.3929 41.0018 19.3929 40.2933C19.3817 39.6167 18.9356 39.0751 18.259 39.0751ZM30.4944 39.0451C29.9321 39.0451 29.5873 39.4087 29.5048 39.9503H31.4934C31.3997 39.3562 31.0361 39.0451 30.4944 39.0451ZM41.7196 39.0751C41.0111 39.0751 40.5857 39.6167 40.5857 40.2933C40.5857 40.97 41.013 41.5116 41.7196 41.5116C42.4281 41.5116 42.8854 41.0018 42.8854 40.2933C42.8854 39.6167 42.4262 39.0751 41.7196 39.0751ZM52.7462 41.7928C52.7462 41.8246 52.778 41.8453 52.778 41.9071C52.778 41.939 52.7462 41.9596 52.7462 42.0215C52.7143 42.0533 52.7143 42.0739 52.6937 42.1039C52.6618 42.1358 52.6412 42.1564 52.5793 42.1564C52.5475 42.1883 52.5269 42.1883 52.465 42.1883C52.4331 42.1883 52.4125 42.1883 52.3507 42.1564C52.3188 42.1564 52.2982 42.1245 52.2682 42.1039C52.2363 42.0721 52.2157 42.0514 52.2157 42.0215C52.1839 41.969 52.1839 41.939 52.1839 41.9071C52.1839 41.8546 52.1839 41.8246 52.2157 41.7928C52.2157 41.7403 52.2476 41.7103 52.2682 41.6785C52.3001 41.6466 52.3207 41.6466 52.3507 41.626C52.4032 41.5941 52.4331 41.5941 52.465 41.5941C52.5175 41.5941 52.5475 41.5941 52.5793 41.626C52.6318 41.656 52.6618 41.656 52.6937 41.6785C52.7255 41.7009 52.7143 41.7403 52.7462 41.7928ZM52.5175 41.939C52.57 41.939 52.57 41.9071 52.6 41.9071C52.6318 41.8753 52.6318 41.8546 52.6318 41.8246C52.6318 41.7947 52.6318 41.7722 52.6 41.7422C52.57 41.7422 52.5475 41.7103 52.4856 41.7103H52.3188V42.0739H52.4013V41.9277H52.4331L52.5475 42.0739H52.6299L52.5175 41.939ZM60.3165 6.00487V42.6587C60.316 43.9843 59.7891 45.2555 58.8518 46.1928C57.9145 47.1302 56.6433 47.657 55.3177 47.6575H5.33568C4.01008 47.657 2.73891 47.1302 1.80157 46.1928C0.864224 45.2555 0.337411 43.9843 0.336914 42.6587V6.00487C0.337411 4.67926 0.864224 3.4081 1.80157 2.47076C2.73891 1.53341 4.01008 1.0066 5.33568 1.0061H55.3177C56.6433 1.0066 57.9145 1.53341 58.8518 2.47076C59.7891 3.4081 60.316 4.67926 60.3165 6.00487ZM7.00381 20.5401C7.00381 28.5059 13.4701 34.961 21.4247 34.961C24.2576 34.9529 27.0263 34.117 29.3905 32.5562C21.7995 26.3823 21.852 14.7297 29.3905 8.55392C27.0286 6.98818 24.2584 6.15189 21.4247 6.14919C13.4701 6.13982 7.00381 12.6043 7.00381 20.5401ZM30.3276 31.8702C37.6693 26.1424 37.6374 14.9809 30.3276 9.22304C23.0178 14.9809 22.986 26.1536 30.3276 31.8702ZM15.5094 39.8154C15.5094 38.9101 14.9152 38.316 13.9781 38.2841C13.4983 38.2841 12.9885 38.4303 12.6455 38.9607C12.3962 38.5334 11.9688 38.2841 11.3747 38.2841C11.1588 38.2808 10.9453 38.3303 10.7529 38.4283C10.5605 38.5263 10.395 38.6698 10.2707 38.8464V38.389H9.41791V42.2108H10.2707C10.2707 40.2427 10.0102 39.0657 11.2079 39.0657C12.2706 39.0657 12.0625 40.1284 12.0625 42.2108H12.8854C12.8854 40.3046 12.6248 39.0657 13.8225 39.0657C14.8852 39.0657 14.6753 40.1078 14.6753 42.2108H15.53V39.8154H15.5094ZM20.1858 38.389H19.363V38.8464C19.2173 38.6647 19.0314 38.5193 18.82 38.4218C18.6086 38.3242 18.3774 38.2771 18.1447 38.2841C17.0726 38.2841 16.2497 39.1388 16.2497 40.2933C16.2497 41.4592 17.0726 42.3026 18.1447 42.3026C18.6863 42.3026 19.0818 42.1039 19.363 41.7403V42.2201H20.1858V38.389ZM24.403 41.0543C24.403 39.493 22.0188 40.1996 22.0188 39.4705C22.0188 38.8764 23.2578 38.972 23.9456 39.3562L24.2886 38.6796C23.3102 38.0442 21.1435 38.0554 21.1435 39.5343C21.1435 41.0224 23.5277 40.3983 23.5277 41.0955C23.5277 41.7515 22.1219 41.6991 21.3722 41.178L21.0086 41.834C22.1744 42.625 24.403 42.4582 24.403 41.0524V41.0543ZM28.0897 42.0215L27.861 41.313C27.4656 41.5304 26.5903 41.7703 26.5903 40.8856V39.1575H27.9548V38.3872H26.5903V37.2214H25.7356V38.3872H24.9446V39.1481H25.7356V40.8875C25.7356 42.7206 27.5368 42.3869 28.0897 42.0215ZM29.4729 40.627H32.3369C32.3369 38.9401 31.5665 38.2728 30.5244 38.2728C29.4205 38.2728 28.6295 39.0957 28.6295 40.2821C28.6295 42.4169 30.9836 42.7712 32.1494 41.7609L31.754 41.1368C30.9424 41.804 29.7129 41.7403 29.4729 40.627ZM35.6281 38.389C35.1502 38.181 34.4211 38.2016 34.0462 38.8464V38.389H33.1916V42.2108H34.0462V40.0553C34.0462 38.8464 35.0359 39.0038 35.3789 39.18L35.6281 38.389ZM36.7321 40.2933C36.7321 39.105 37.941 38.7208 38.8876 39.418L39.283 38.7414C38.0741 37.7949 35.8774 38.3141 35.8774 40.3027C35.8774 42.3644 38.2091 42.7805 39.283 41.864L38.8876 41.1874C37.9298 41.864 36.7321 41.4592 36.7321 40.2915V40.2933ZM43.6764 38.389H42.8217V38.8464C41.9577 37.7012 39.7085 38.3478 39.7085 40.2933C39.7085 42.2932 42.0401 42.8649 42.8217 41.7403V42.2201H43.6764V38.389ZM47.1851 38.389C46.9358 38.2635 46.0399 38.0873 45.6032 38.8464V38.389H44.7804V42.2108H45.6032V40.0553C45.6032 38.9101 46.5403 38.9832 46.9358 39.18L47.1851 38.389ZM51.3817 36.8371H50.5588V38.8464C49.7042 37.7124 47.4456 38.316 47.4456 40.2933C47.4456 42.3138 49.7885 42.8536 50.5588 41.7403V42.2201H51.3817V36.8371ZM52.1745 29.0175V29.4974H52.257V29.0175H52.4538V28.9351H51.9739V29.0175H52.1745ZM52.8605 41.9071C52.8605 41.8546 52.8605 41.7928 52.8305 41.7403C52.7986 41.7084 52.778 41.6578 52.748 41.626C52.718 41.5941 52.6656 41.5735 52.6337 41.5435C52.5812 41.5435 52.5194 41.5116 52.4669 41.5116C52.435 41.5116 52.3844 41.5435 52.3207 41.5435C52.2796 41.5666 52.2412 41.5943 52.2064 41.626C52.1539 41.656 52.1239 41.7084 52.1239 41.7403C52.092 41.7928 52.092 41.8546 52.092 41.9071C52.092 41.939 52.092 41.9896 52.1239 42.0533C52.1239 42.0852 52.1557 42.1358 52.2064 42.1676C52.238 42.2031 52.277 42.2313 52.3207 42.2501C52.3732 42.2801 52.435 42.2801 52.4669 42.2801C52.5194 42.2801 52.5812 42.2801 52.6337 42.2501C52.6656 42.2182 52.7162 42.1976 52.748 42.1676C52.7799 42.1377 52.8005 42.0852 52.8305 42.0533C52.8605 41.9915 52.8605 41.939 52.8605 41.9071ZM53.1941 28.9238H53.0479L52.8811 29.2874L52.7143 28.9238H52.5681V29.4861H52.6506V29.0588L52.8174 29.4224H52.9317L53.0779 29.0588V29.4861H53.1922L53.1941 28.9238ZM53.6514 20.5401C53.6514 12.6043 47.1851 6.13982 39.2306 6.13982C36.3975 6.14692 33.6285 6.98284 31.2648 8.54454C38.7732 14.7204 38.8876 26.4029 31.2648 32.5469C33.6279 34.1099 36.3973 34.9459 39.2306 34.9516C47.1851 34.9628 53.6514 28.5059 53.6514 20.5401Z" fill="white"/>
<path d="M30.3276 31.8702C37.6693 26.1424 37.6374 14.9809 30.3276 9.22304C23.0178 14.9809 22.986 26.1536 30.3276 31.8702Z" fill="#FF5B03"/>
<path d="M7.00381 20.5401C7.00381 28.5059 13.4701 34.961 21.4247 34.961C24.2576 34.9529 27.0263 34.117 29.3905 32.5562C21.7995 26.3823 21.852 14.7297 29.3905 8.55392C27.0286 6.98818 24.2584 6.15189 21.4247 6.14919C13.4701 6.13982 7.00381 12.6043 7.00381 20.5401Z" fill="#EB001B"/>
<path d="M53.6514 20.5401C53.6514 12.6043 47.1851 6.13982 39.2306 6.13982C36.3975 6.14692 33.6285 6.98284 31.2648 8.54454C38.7732 14.7204 38.8876 26.4029 31.2648 32.5469C33.6279 34.1099 36.3973 34.9459 39.2306 34.9516C47.1851 34.9628 53.6514 28.5059 53.6514 20.5401Z" fill="#F79F1B"/>
</g>
</g>
<defs>
<clipPath id="clip0_11582_9429">
<rect width="60.4614" height="47.4017" fill="white" transform="translate(0.336914 0.533447)"/>
</clipPath>
</defs>
</svg>
