<svg width="61" height="48" viewBox="0 0 61 48" fill="none" xmlns="http://www.w3.org/2000/svg">
<g id="cib:cc-visa" opacity="0.9" clip-path="url(#clip0_11582_9433)">
<path id="Vector" d="M49.3039 21.6571C49.3039 21.6571 50.0967 25.5405 50.2752 26.354H46.7902L48.4604 21.8131C48.4397 21.845 48.8042 20.8624 49.0127 20.2575L49.3039 21.6571ZM60.3565 5.86457V42.6049C60.356 43.9337 59.8279 45.2078 58.8884 46.1474C57.9488 47.0869 56.6746 47.615 55.3459 47.6155H5.24591C3.91718 47.615 2.64302 47.0869 1.70346 46.1474C0.763906 45.2078 0.235849 43.9337 0.235352 42.6049V5.86457C0.235849 4.53584 0.763906 3.26167 1.70346 2.32211C2.64302 1.38256 3.91718 0.854502 5.24591 0.854004H55.3459C56.6746 0.854502 57.9488 1.38256 58.8884 2.32211C59.8279 3.26167 60.356 4.53584 60.3565 5.86457ZM16.1538 32.0841L22.75 15.8857H18.3143L14.2131 26.9495L13.7641 24.7063L12.3024 17.2534C12.0619 16.2201 11.3217 15.927 10.403 15.8857H3.65088L3.57761 16.2088C5.12394 16.5882 6.60722 17.1893 7.98134 17.9936L11.7181 32.0841H16.1538ZM26.0077 32.1047L28.6379 15.8857H24.4427L21.8238 32.1047H26.0077ZM40.6092 26.803C40.6298 24.9562 39.5026 23.5471 37.0922 22.388C35.6212 21.6459 34.7231 21.1461 34.7231 20.3834C34.7438 19.6939 35.4859 18.9837 37.1335 18.9837C38.2067 18.9534 39.273 19.164 40.2541 19.5999L40.6298 19.7765L41.2047 16.269C40.0054 15.8098 38.7315 15.5761 37.4473 15.5795C33.3028 15.5795 30.3908 17.7926 30.3701 20.9432C30.3382 23.271 32.4574 24.5654 34.0449 25.347C35.6625 26.1398 36.2167 26.6621 36.2167 27.3609C36.196 28.4469 34.9016 28.9466 33.7011 28.9466C32.0309 28.9466 31.1329 28.6855 29.7652 28.0805L29.2128 27.8194L28.6285 31.4622C29.6092 31.9112 31.426 32.3076 33.3047 32.3283C37.7084 32.3377 40.5791 30.1565 40.611 26.7973L40.6092 26.803ZM55.3459 32.1047L51.9642 15.8857H48.7178C47.7164 15.8857 46.9536 16.1788 46.5253 17.2327L40.2935 32.1066H44.6973C44.6973 32.1066 45.4168 30.102 45.5746 29.6755H50.961C51.0868 30.2504 51.4626 32.1066 51.4626 32.1066L55.3459 32.1047Z" fill="#1334C9"/>
</g>
<defs>
<clipPath id="clip0_11582_9433">
<rect width="60.6973" height="47.4017" fill="white" transform="translate(0.235352 0.533691)"/>
</clipPath>
</defs>
</svg>
