<svg width="72" height="48" viewBox="0 0 72 48" fill="none" xmlns="http://www.w3.org/2000/svg">
<g id="fontisto:apple-pay" opacity="0.9" clip-path="url(#clip0_11582_9427)">
<path id="Vector" d="M66.4298 47.9351H4.80755C3.55038 47.9351 2.3447 47.4357 1.45575 46.5468C0.566792 45.6578 0.0673828 44.4521 0.0673828 43.195L0.0673828 5.27362C0.0673828 4.01645 0.566792 2.81077 1.45575 1.92181C2.3447 1.03286 3.55038 0.533447 4.80755 0.533447L66.4298 0.533447C67.6869 0.533447 68.8926 1.03286 69.7816 1.92181C70.6705 2.81077 71.1699 4.01645 71.1699 5.27362V43.195C71.1699 44.4521 70.6705 45.6578 69.7816 46.5468C68.8926 47.4357 67.6869 47.9351 66.4298 47.9351ZM54.9605 33.8924V36.0847C55.2746 36.1282 55.636 36.1539 56.0034 36.1539H56.035C58.7882 36.1539 60.0937 35.0834 61.2195 31.9134L66.1849 17.9891H63.3131L59.9831 28.7454H59.9239L56.5939 17.9891H53.6392L58.4287 31.2478L58.172 32.0536C58.0843 32.6115 57.7901 33.1161 57.3478 33.4673C56.9055 33.8185 56.3474 33.9907 55.7841 33.9497H55.792C55.515 33.9381 55.2384 33.919 54.9625 33.8924H54.9605ZM11.351 16.4407H11.2996C10.4681 16.4633 9.65662 16.701 8.94427 17.1306C8.23193 17.5601 7.64302 18.1669 7.23491 18.8917L7.22306 18.9154C5.5561 21.7832 6.61672 26.1718 8.46143 28.8441C9.32651 30.1082 10.2745 31.3446 11.5248 31.3446H11.5919C12.1153 31.311 12.5992 31.1747 13.0357 30.9555L13.014 30.9653C13.5413 30.7007 14.1615 30.5446 14.8172 30.5387C15.4512 30.5427 16.0516 30.6967 16.579 30.9653L16.5572 30.9555C16.9819 31.1767 17.4816 31.311 18.0129 31.3228H18.0702C19.4626 31.2971 20.3356 30.0193 21.1078 28.8935C21.6589 28.0956 22.1151 27.1772 22.4351 26.1955L22.4568 26.1205V26.1007L22.4212 26.0849C21.6503 25.7392 20.995 25.1791 20.5335 24.4714C20.072 23.7637 19.8236 22.9382 19.8181 22.0933V22.0913C19.8249 21.3452 20.0193 20.6128 20.3835 19.9615C20.7476 19.3102 21.2697 18.761 21.9018 18.3644L21.9196 18.3545L21.9551 18.3308C21.5496 17.7423 21.0109 17.2578 20.3829 16.9167C19.7548 16.5756 19.0552 16.3874 18.3407 16.3676H18.1255C17.2783 16.4105 16.4475 16.6163 15.6783 16.9739L15.7198 16.9562C15.3571 17.1312 14.9681 17.2453 14.5684 17.2939L14.5506 17.2959C14.1206 17.2506 13.702 17.1295 13.3142 16.9384L13.3359 16.9483C12.7182 16.6537 12.0498 16.4801 11.3668 16.4367H11.351V16.4407ZM47.1254 20.0274C48.8635 20.0274 49.8234 20.8411 49.8234 22.3165V23.3218L46.2959 23.5312C42.9876 23.7307 41.2397 25.0717 41.2397 27.4082C41.2455 27.9704 41.3699 28.525 41.6048 29.0357C41.8397 29.5465 42.1798 30.0019 42.6028 30.3721C43.0258 30.7424 43.5223 31.0192 44.0596 31.1844C44.597 31.3496 45.1632 31.3994 45.7211 31.3307L45.7014 31.3327L45.8298 31.3347C47.5461 31.3347 49.0472 30.4103 49.8609 29.0298L49.8727 29.008H49.932V31.1846H52.549V22.1269C52.549 19.5001 50.4534 17.8054 47.2103 17.8054C44.2201 17.8054 41.9962 19.5198 41.9073 21.88H44.4551C44.6042 21.2995 44.9578 20.7922 45.4509 20.4515C45.944 20.1108 46.5435 19.9595 47.1392 20.0254L47.1274 20.0234L47.1254 20.0274ZM27.7184 12.9843V31.1865H30.5447V24.9611H34.4494C35.254 25.0039 36.0586 24.8781 36.8118 24.5919C37.5649 24.3056 38.25 23.8652 38.823 23.2989C39.3961 22.7325 39.8445 22.0527 40.1396 21.3029C40.4347 20.5532 40.5699 19.7501 40.5366 18.9451V18.9569C40.5716 18.1605 40.4401 17.3656 40.1503 16.623C39.8605 15.8804 39.419 15.2065 38.8538 14.6443C38.2887 14.0821 37.6124 13.6441 36.8683 13.3582C36.1241 13.0724 35.3285 12.945 34.5324 12.9843H34.5462H27.7184ZM18.3427 11.5938C17.2136 11.7009 16.169 12.2384 15.4255 13.0949L15.4216 13.1008C15.0517 13.5155 14.7683 13.9999 14.5882 14.5257C14.4081 15.0514 14.3349 15.6078 14.3728 16.1622V16.1503C14.44 16.1503 14.5111 16.1582 14.5901 16.1582C15.1164 16.1297 15.6307 15.9905 16.0996 15.7499C16.5686 15.5094 16.9816 15.1727 17.3117 14.7619L17.3177 14.754C18.0634 13.8711 18.4323 12.7304 18.3447 11.578V11.5919L18.3427 11.5938ZM46.4598 29.174C44.9627 29.174 43.993 28.453 43.993 27.3391C43.993 26.1896 44.9212 25.528 46.6791 25.4233L49.8194 25.2258V26.2548C49.802 26.6722 49.6992 27.0817 49.5176 27.4579C49.3359 27.8341 49.0792 28.1692 48.7632 28.4425C48.4472 28.7157 48.0786 28.9214 47.68 29.0469C47.2815 29.1724 46.8616 29.2149 46.446 29.172L46.4598 29.174ZM33.7838 22.597H30.5368V15.3662H33.7957C34.2976 15.2975 34.8085 15.3418 35.2911 15.4958C35.7738 15.6498 36.2159 15.9097 36.5852 16.2565C36.9545 16.6033 37.2417 17.0282 37.4257 17.5002C37.6098 17.9722 37.6861 18.4793 37.649 18.9846V18.9727C37.685 19.4806 37.607 19.9901 37.4205 20.4639C37.234 20.9377 36.9439 21.3638 36.5714 21.7109C36.1989 22.0581 35.7534 22.3175 35.2677 22.4701C34.7819 22.6227 34.2682 22.6647 33.7641 22.593L33.7818 22.595L33.7838 22.597Z" fill="white"/>
</g>
<defs>
<clipPath id="clip0_11582_9427">
<rect width="71.1025" height="47.4017" fill="white" transform="translate(0.0673828 0.533447)"/>
</clipPath>
</defs>
</svg>
