<svg width="36" height="37" viewBox="0 0 36 37" fill="none" xmlns="http://www.w3.org/2000/svg">
<g id="List - &#208;&#161;&#208;&#190;&#209;&#134;. &#209;&#129;&#208;&#181;&#209;&#130;&#208;&#184; &#226;&#134;&#146; Item &#226;&#134;&#146; Link - twitter" clip-path="url(#clip0_12075_333)">
<path id="Vector" fill-rule="evenodd" clip-rule="evenodd" d="M18 36.52C27.9411 36.52 36 28.4611 36 18.52C36 8.57892 27.9411 0.52002 18 0.52002C8.0589 0.52002 0 8.57892 0 18.52C0 28.4611 8.0589 36.52 18 36.52ZM26.0628 9.89502L19.6411 17.1992L26.625 27.145H21.4884L16.7851 20.4475L10.8968 27.145H9.375L16.1096 19.4854L9.375 9.89502H14.5116L18.9651 16.2372L24.541 9.89502H26.0628ZM16.8744 18.615L17.5568 19.5699L22.2043 26.075H24.5418L18.8464 18.1036L18.164 17.1486L13.7826 11.016H11.4451L16.8744 18.615Z" fill="white"/>
</g>
<defs>
<clipPath id="clip0_12075_333">
<rect width="36" height="36" fill="white" transform="translate(0 0.52002)"/>
</clipPath>
</defs>
</svg>
