<svg width="550" height="550" viewBox="0 0 550 550" fill="none" xmlns="http://www.w3.org/2000/svg">
<g opacity="0.4">
<mask id="mask0_1380_16677" style="mask-type:alpha" maskUnits="userSpaceOnUse" x="178" y="84" width="32" height="144">
<rect width="31.4843" height="143.642" transform="matrix(-1 0 0 1 209.519 84.0604)" fill="url(#paint0_radial_1380_16677)"/>
</mask>
<g mask="url(#mask0_1380_16677)">
<rect opacity="0.5" width="15.1731" height="141.769" transform="matrix(-1 0 0 1 209.519 85.9335)" fill="url(#paint1_linear_1380_16677)"/>
<rect opacity="0.5" x="178.034" y="85.9335" width="15.1731" height="141.769" fill="url(#paint2_linear_1380_16677)"/>
</g>
</g>
<path d="M203.171 90.1186C207.094 87.741 209.055 86.5522 209.428 85.1245C209.549 84.6634 209.549 84.1936 209.428 83.7325C209.055 82.3048 207.094 81.116 203.171 78.7384C199.248 76.3607 197.286 75.1719 194.931 74.9458C194.17 74.8727 193.395 74.8727 192.634 74.9458C190.279 75.1719 188.317 76.3607 184.394 78.7384C180.471 81.116 178.51 82.3048 178.137 83.7325C178.016 84.1936 178.016 84.6634 178.137 85.1245C178.51 86.5522 180.471 87.741 184.394 90.1186C188.317 92.4963 190.279 93.6851 192.634 93.9112C193.395 93.9843 194.17 93.9843 194.931 93.9112C197.286 93.6851 199.248 92.4963 203.171 90.1186Z" fill="url(#paint3_linear_1380_16677)"/>
<path d="M203.171 90.1186C207.094 87.741 209.055 86.5522 209.428 85.1245C209.549 84.6634 209.549 84.1936 209.428 83.7325C209.055 82.3048 207.094 81.116 203.171 78.7384C199.248 76.3607 197.286 75.1719 194.931 74.9458C194.17 74.8727 193.395 74.8727 192.634 74.9458C190.279 75.1719 188.317 76.3607 184.394 78.7384C180.471 81.116 178.51 82.3048 178.137 83.7325C178.016 84.1936 178.016 84.6634 178.137 85.1245C178.51 86.5522 180.471 87.741 184.394 90.1186C188.317 92.4963 190.279 93.6851 192.634 93.9112C193.395 93.9843 194.17 93.9843 194.931 93.9112C197.286 93.6851 199.248 92.4963 203.171 90.1186Z" fill="white" fill-opacity="0.6"/>
<path d="M209.519 82.8569H178.034V84.3742H209.519V82.8569Z" fill="url(#paint4_linear_1380_16677)"/>
<path d="M209.519 82.8569H178.034V84.3742H209.519V82.8569Z" fill="white" fill-opacity="0.6"/>
<rect width="21.9561" height="21.9561" rx="6.06926" transform="matrix(-0.855186 -0.518321 -0.855186 0.518321 212.552 82.6683)" fill="white"/>
<g opacity="0.4">
<mask id="mask1_1380_16677" style="mask-type:alpha" maskUnits="userSpaceOnUse" x="396" y="428" width="14" height="62">
<rect width="13.265" height="60.5196" transform="matrix(-1 0 0 1 409.543 428.669)" fill="url(#paint5_radial_1380_16677)"/>
</mask>
<g mask="url(#mask1_1380_16677)">
<rect opacity="0.5" width="6.39278" height="59.7302" transform="matrix(-1 0 0 1 409.543 429.458)" fill="url(#paint6_linear_1380_16677)"/>
<rect opacity="0.5" x="396.278" y="429.458" width="6.39278" height="59.7302" fill="url(#paint7_linear_1380_16677)"/>
</g>
</g>
<path d="M406.869 431.221C408.522 430.22 409.348 429.719 409.505 429.117C409.556 428.923 409.556 428.725 409.505 428.531C409.348 427.929 408.522 427.428 406.869 426.427C405.216 425.425 404.39 424.924 403.397 424.829C403.077 424.798 402.75 424.798 402.43 424.829C401.437 424.924 400.611 425.425 398.958 426.427C397.305 427.428 396.479 427.929 396.322 428.531C396.271 428.725 396.271 428.923 396.322 429.117C396.479 429.719 397.305 430.22 398.958 431.221C400.611 432.223 401.437 432.724 402.43 432.819C402.75 432.85 403.077 432.85 403.397 432.819C404.39 432.724 405.216 432.223 406.869 431.221Z" fill="url(#paint8_linear_1380_16677)"/>
<path d="M406.869 431.221C408.522 430.22 409.348 429.719 409.505 429.117C409.556 428.923 409.556 428.725 409.505 428.531C409.348 427.929 408.522 427.428 406.869 426.427C405.216 425.425 404.39 424.924 403.397 424.829C403.077 424.798 402.75 424.798 402.43 424.829C401.437 424.924 400.611 425.425 398.958 426.427C397.305 427.428 396.479 427.929 396.322 428.531C396.271 428.725 396.271 428.923 396.322 429.117C396.479 429.719 397.305 430.22 398.958 431.221C400.611 432.223 401.437 432.724 402.43 432.819C402.75 432.85 403.077 432.85 403.397 432.819C404.39 432.724 405.216 432.223 406.869 431.221Z" fill="white" fill-opacity="0.6"/>
<path d="M409.543 428.162H396.278V428.801H409.543V428.162Z" fill="url(#paint9_linear_1380_16677)"/>
<path d="M409.543 428.162H396.278V428.801H409.543V428.162Z" fill="white" fill-opacity="0.6"/>
<rect width="9.25056" height="9.25056" rx="2.55711" transform="matrix(-0.855186 -0.518321 -0.855186 0.518321 410.821 428.082)" fill="white"/>
<g opacity="0.4">
<mask id="mask2_1380_16677" style="mask-type:alpha" maskUnits="userSpaceOnUse" x="117" y="254" width="348" height="297">
<rect x="117" y="254" width="348" height="296" fill="url(#paint10_radial_1380_16677)"/>
</mask>
<g mask="url(#mask2_1380_16677)">
<rect opacity="0.5" x="117" y="267" width="168" height="306" fill="url(#paint11_linear_1380_16677)"/>
<rect opacity="0.1" width="168" height="306" transform="matrix(-1 0 0 1 465 267)" fill="url(#paint12_linear_1380_16677)"/>
</g>
</g>
<g opacity="0.4" filter="url(#filter0_f_1380_16677)">
<rect width="254.06" height="254.06" rx="74.6705" transform="matrix(0.82945 -0.558581 0.82945 0.558581 80.1891 311.696)" fill="#004316"/>
</g>
<path d="M186.882 330.832C143.445 301.58 121.726 286.954 117.595 269.388C116.261 263.715 116.261 257.936 117.595 252.264C121.726 234.698 143.445 220.072 186.882 190.82C230.32 161.567 252.038 146.941 278.122 144.159C286.546 143.261 295.127 143.261 303.551 144.159C329.634 146.941 351.353 161.567 394.79 190.82C438.228 220.072 459.946 234.698 464.077 252.264C465.412 257.936 465.412 263.715 464.077 269.388C459.946 286.954 438.228 301.58 394.79 330.832C351.353 360.084 329.634 374.711 303.551 377.493C295.127 378.391 286.546 378.391 278.122 377.493C252.038 374.711 230.32 360.084 186.882 330.832Z" fill="url(#paint13_linear_1380_16677)"/>
<path d="M186.882 330.832C143.445 301.58 121.726 286.954 117.595 269.388C116.261 263.715 116.261 257.936 117.595 252.264C121.726 234.698 143.445 220.072 186.882 190.82C230.32 161.567 252.038 146.941 278.122 144.159C286.546 143.261 295.127 143.261 303.551 144.159C329.634 146.941 351.353 161.567 394.79 190.82C438.228 220.072 459.946 234.698 464.077 252.264C465.412 257.936 465.412 263.715 464.077 269.388C459.946 286.954 438.228 301.58 394.79 330.832C351.353 360.084 329.634 374.711 303.551 377.493C295.127 378.391 286.546 378.391 278.122 377.493C252.038 374.711 230.32 360.084 186.882 330.832Z" fill="white" fill-opacity="0.6"/>
<path d="M116.594 241.49H465.212V260.158H116.594V241.49Z" fill="url(#paint14_linear_1380_16677)"/>
<path d="M116.594 241.49H465.212V260.158H116.594V241.49Z" fill="white" fill-opacity="0.6"/>
<rect width="254.06" height="254.06" rx="74.6705" transform="matrix(0.82945 -0.558581 0.82945 0.558581 80.1896 239.166)" fill="white"/>
<g opacity="0.2" filter="url(#filter1_f_1380_16677)">
<path fill-rule="evenodd" clip-rule="evenodd" d="M269.704 344.022C252.124 344.022 234.901 340.7 219.816 334.471L216.516 333.087C216.344 333.015 216.154 332.994 215.97 333.028L180.89 339.474C180.149 339.611 179.546 338.88 179.82 338.179L188.832 315.099C188.966 314.756 188.893 314.367 188.643 314.097L186.675 311.964C176.909 301.06 171.723 288.455 171.709 275.588C171.709 237.883 215.658 207.155 269.585 207.155C295.717 207.155 320.305 214.297 338.716 227.253C347.832 233.598 355.057 241.144 359.971 249.456C364.884 257.767 367.39 266.678 367.342 275.671C367.58 313.376 323.631 344.022 269.704 344.022ZM303.319 286.136C305.932 286.883 320.423 291.866 323.393 292.863C326.363 293.859 328.144 294.275 328.976 295.188C329.807 296.102 329.807 300.171 327.313 304.988C324.937 309.805 313.178 314.207 307.476 314.788C302.369 315.286 295.954 315.536 288.946 313.958C284.67 313.044 279.206 311.798 272.198 309.639C242.74 300.753 223.379 279.99 221.954 278.578L221.93 278.557C220.418 277.147 209.957 267.396 209.957 257.317C209.957 247.185 217.559 242.202 220.172 240.126C222.904 238.049 225.992 237.551 228.011 237.551H233.713C235.495 237.634 237.989 237.136 240.365 241.122C242.74 245.275 248.679 255.407 249.392 256.404C250.105 257.4 250.58 258.563 249.63 259.975C248.679 261.304 248.086 262.217 246.66 263.38C245.235 264.543 243.572 266.037 242.265 266.951C240.721 268.031 239.296 269.11 240.959 271.187C242.74 273.263 248.561 279.99 257.35 285.471C268.516 292.448 278.018 294.69 280.988 295.687C283.958 296.766 285.739 296.6 287.402 295.188C289.065 293.859 294.648 289.209 296.667 287.132C298.686 285.139 300.587 285.471 303.319 286.136Z" fill="#00C64F"/>
<path fill-rule="evenodd" clip-rule="evenodd" d="M269.704 344.022C252.124 344.022 234.901 340.7 219.816 334.471L216.516 333.087C216.344 333.015 216.154 332.994 215.97 333.028L180.89 339.474C180.149 339.611 179.546 338.88 179.82 338.179L188.832 315.099C188.966 314.756 188.893 314.367 188.643 314.097L186.675 311.964C176.909 301.06 171.723 288.455 171.709 275.588C171.709 237.883 215.658 207.155 269.585 207.155C295.717 207.155 320.305 214.297 338.716 227.253C347.832 233.598 355.057 241.144 359.971 249.456C364.884 257.767 367.39 266.678 367.342 275.671C367.58 313.376 323.631 344.022 269.704 344.022ZM303.319 286.136C305.932 286.883 320.423 291.866 323.393 292.863C326.363 293.859 328.144 294.275 328.976 295.188C329.807 296.102 329.807 300.171 327.313 304.988C324.937 309.805 313.178 314.207 307.476 314.788C302.369 315.286 295.954 315.536 288.946 313.958C284.67 313.044 279.206 311.798 272.198 309.639C242.74 300.753 223.379 279.99 221.954 278.578L221.93 278.557C220.418 277.147 209.957 267.396 209.957 257.317C209.957 247.185 217.559 242.202 220.172 240.126C222.904 238.049 225.992 237.551 228.011 237.551H233.713C235.495 237.634 237.989 237.136 240.365 241.122C242.74 245.275 248.679 255.407 249.392 256.404C250.105 257.4 250.58 258.563 249.63 259.975C248.679 261.304 248.086 262.217 246.66 263.38C245.235 264.543 243.572 266.037 242.265 266.951C240.721 268.031 239.296 269.11 240.959 271.187C242.74 273.263 248.561 279.99 257.35 285.471C268.516 292.448 278.018 294.69 280.988 295.687C283.958 296.766 285.739 296.6 287.402 295.188C289.065 293.859 294.648 289.209 296.667 287.132C298.686 285.139 300.587 285.471 303.319 286.136Z" fill="url(#paint15_radial_1380_16677)" fill-opacity="0.2"/>
<path fill-rule="evenodd" clip-rule="evenodd" d="M269.704 344.022C252.124 344.022 234.901 340.7 219.816 334.471L216.516 333.087C216.344 333.015 216.154 332.994 215.97 333.028L180.89 339.474C180.149 339.611 179.546 338.88 179.82 338.179L188.832 315.099C188.966 314.756 188.893 314.367 188.643 314.097L186.675 311.964C176.909 301.06 171.723 288.455 171.709 275.588C171.709 237.883 215.658 207.155 269.585 207.155C295.717 207.155 320.305 214.297 338.716 227.253C347.832 233.598 355.057 241.144 359.971 249.456C364.884 257.767 367.39 266.678 367.342 275.671C367.58 313.376 323.631 344.022 269.704 344.022ZM303.319 286.136C305.932 286.883 320.423 291.866 323.393 292.863C326.363 293.859 328.144 294.275 328.976 295.188C329.807 296.102 329.807 300.171 327.313 304.988C324.937 309.805 313.178 314.207 307.476 314.788C302.369 315.286 295.954 315.536 288.946 313.958C284.67 313.044 279.206 311.798 272.198 309.639C242.74 300.753 223.379 279.99 221.954 278.578L221.93 278.557C220.418 277.147 209.957 267.396 209.957 257.317C209.957 247.185 217.559 242.202 220.172 240.126C222.904 238.049 225.992 237.551 228.011 237.551H233.713C235.495 237.634 237.989 237.136 240.365 241.122C242.74 245.275 248.679 255.407 249.392 256.404C250.105 257.4 250.58 258.563 249.63 259.975C248.679 261.304 248.086 262.217 246.66 263.38C245.235 264.543 243.572 266.037 242.265 266.951C240.721 268.031 239.296 269.11 240.959 271.187C242.74 273.263 248.561 279.99 257.35 285.471C268.516 292.448 278.018 294.69 280.988 295.687C283.958 296.766 285.739 296.6 287.402 295.188C289.065 293.859 294.648 289.209 296.667 287.132C298.686 285.139 300.587 285.471 303.319 286.136Z" fill="url(#paint16_radial_1380_16677)" fill-opacity="0.2"/>
<path fill-rule="evenodd" clip-rule="evenodd" d="M314.813 199.514C329.109 203.664 342.08 209.762 352.97 217.453C375.182 232.983 387.416 253.663 387.416 275.671C387.416 321.017 334.558 357.974 269.704 357.974C250.082 357.974 230.813 354.52 213.653 348.021C213.488 347.958 213.31 347.942 213.137 347.974L152.737 359.075C151.996 359.211 151.394 358.481 151.667 357.78L167.466 317.222C167.592 316.899 167.533 316.531 167.315 316.261C157.328 303.911 151.991 289.952 151.991 275.588C151.991 230.243 204.849 193.285 269.704 193.285C285.182 193.248 300.517 195.365 314.813 199.514ZM219.816 334.471C234.901 340.7 252.124 344.022 269.704 344.022C323.631 344.022 367.58 313.376 367.342 275.671C367.39 266.678 364.884 257.767 359.971 249.456C355.057 241.144 347.832 233.598 338.716 227.253C320.305 214.297 295.717 207.155 269.585 207.155C215.658 207.155 171.709 237.883 171.709 275.588C171.723 288.455 176.909 301.06 186.675 311.964L188.643 314.097C188.893 314.367 188.966 314.756 188.832 315.099L179.82 338.179C179.546 338.88 180.149 339.611 180.89 339.474L215.97 333.028C216.154 332.994 216.344 333.015 216.516 333.087L219.816 334.471Z" fill="#00C64F"/>
<path fill-rule="evenodd" clip-rule="evenodd" d="M314.813 199.514C329.109 203.664 342.08 209.762 352.97 217.453C375.182 232.983 387.416 253.663 387.416 275.671C387.416 321.017 334.558 357.974 269.704 357.974C250.082 357.974 230.813 354.52 213.653 348.021C213.488 347.958 213.31 347.942 213.137 347.974L152.737 359.075C151.996 359.211 151.394 358.481 151.667 357.78L167.466 317.222C167.592 316.899 167.533 316.531 167.315 316.261C157.328 303.911 151.991 289.952 151.991 275.588C151.991 230.243 204.849 193.285 269.704 193.285C285.182 193.248 300.517 195.365 314.813 199.514ZM219.816 334.471C234.901 340.7 252.124 344.022 269.704 344.022C323.631 344.022 367.58 313.376 367.342 275.671C367.39 266.678 364.884 257.767 359.971 249.456C355.057 241.144 347.832 233.598 338.716 227.253C320.305 214.297 295.717 207.155 269.585 207.155C215.658 207.155 171.709 237.883 171.709 275.588C171.723 288.455 176.909 301.06 186.675 311.964L188.643 314.097C188.893 314.367 188.966 314.756 188.832 315.099L179.82 338.179C179.546 338.88 180.149 339.611 180.89 339.474L215.97 333.028C216.154 332.994 216.344 333.015 216.516 333.087L219.816 334.471Z" fill="url(#paint17_radial_1380_16677)" fill-opacity="0.2"/>
<path fill-rule="evenodd" clip-rule="evenodd" d="M314.813 199.514C329.109 203.664 342.08 209.762 352.97 217.453C375.182 232.983 387.416 253.663 387.416 275.671C387.416 321.017 334.558 357.974 269.704 357.974C250.082 357.974 230.813 354.52 213.653 348.021C213.488 347.958 213.31 347.942 213.137 347.974L152.737 359.075C151.996 359.211 151.394 358.481 151.667 357.78L167.466 317.222C167.592 316.899 167.533 316.531 167.315 316.261C157.328 303.911 151.991 289.952 151.991 275.588C151.991 230.243 204.849 193.285 269.704 193.285C285.182 193.248 300.517 195.365 314.813 199.514ZM219.816 334.471C234.901 340.7 252.124 344.022 269.704 344.022C323.631 344.022 367.58 313.376 367.342 275.671C367.39 266.678 364.884 257.767 359.971 249.456C355.057 241.144 347.832 233.598 338.716 227.253C320.305 214.297 295.717 207.155 269.585 207.155C215.658 207.155 171.709 237.883 171.709 275.588C171.723 288.455 176.909 301.06 186.675 311.964L188.643 314.097C188.893 314.367 188.966 314.756 188.832 315.099L179.82 338.179C179.546 338.88 180.149 339.611 180.89 339.474L215.97 333.028C216.154 332.994 216.344 333.015 216.516 333.087L219.816 334.471Z" fill="url(#paint18_radial_1380_16677)" fill-opacity="0.2"/>
</g>
<path fill-rule="evenodd" clip-rule="evenodd" d="M268.391 295.413C250.811 295.413 233.588 292.091 218.502 285.862L215.203 284.478C215.031 284.406 214.841 284.385 214.657 284.419L179.576 290.865C178.835 291.002 178.233 290.272 178.507 289.57L187.519 266.49C187.653 266.148 187.58 265.759 187.33 265.488L185.362 263.356C175.595 252.451 170.409 239.846 170.396 226.979C170.396 189.275 214.345 185.405 268.272 185.405C294.404 185.405 318.991 165.688 337.403 178.644C346.519 184.989 353.743 192.536 358.657 200.847C363.571 209.158 366.077 218.069 366.029 227.062C366.267 264.767 322.317 295.413 268.391 295.413ZM302.006 237.527C304.619 238.274 319.11 243.257 322.08 244.254C325.049 245.251 326.831 245.666 327.663 246.579C328.494 247.493 328.494 251.562 326 256.379C323.624 261.196 311.865 265.598 306.163 266.179C301.055 266.678 294.641 266.927 287.633 265.349C283.357 264.435 277.893 263.189 270.885 261.03C241.427 252.144 222.066 231.381 220.64 229.969L220.617 229.948C219.105 228.538 208.643 218.787 208.643 208.708C208.643 198.576 216.245 193.593 218.859 191.517C221.591 189.441 224.679 188.942 226.698 188.942H232.4C234.181 189.025 236.676 188.527 239.051 192.513C241.427 196.666 247.366 206.798 248.079 207.795C248.792 208.791 249.267 209.954 248.316 211.366C247.366 212.695 246.772 213.608 245.347 214.771C243.922 215.934 242.259 217.429 240.952 218.342C239.408 219.422 237.982 220.501 239.645 222.578C241.427 224.654 247.247 231.381 256.037 236.862C267.203 243.839 276.705 246.081 279.675 247.078C282.644 248.157 284.426 247.991 286.089 246.579C287.752 245.251 293.335 240.6 295.354 238.523C297.373 236.53 299.274 236.862 302.006 237.527Z" fill="url(#paint19_linear_1380_16677)"/>
<path fill-rule="evenodd" clip-rule="evenodd" d="M268.391 295.413C250.811 295.413 233.588 292.091 218.502 285.862L215.203 284.478C215.031 284.406 214.841 284.385 214.657 284.419L179.576 290.865C178.835 291.002 178.233 290.272 178.507 289.57L187.519 266.49C187.653 266.148 187.58 265.759 187.33 265.488L185.362 263.356C175.595 252.451 170.409 239.846 170.396 226.979C170.396 189.275 214.345 185.405 268.272 185.405C294.404 185.405 318.991 165.688 337.403 178.644C346.519 184.989 353.743 192.536 358.657 200.847C363.571 209.158 366.077 218.069 366.029 227.062C366.267 264.767 322.317 295.413 268.391 295.413ZM302.006 237.527C304.619 238.274 319.11 243.257 322.08 244.254C325.049 245.251 326.831 245.666 327.663 246.579C328.494 247.493 328.494 251.562 326 256.379C323.624 261.196 311.865 265.598 306.163 266.179C301.055 266.678 294.641 266.927 287.633 265.349C283.357 264.435 277.893 263.189 270.885 261.03C241.427 252.144 222.066 231.381 220.64 229.969L220.617 229.948C219.105 228.538 208.643 218.787 208.643 208.708C208.643 198.576 216.245 193.593 218.859 191.517C221.591 189.441 224.679 188.942 226.698 188.942H232.4C234.181 189.025 236.676 188.527 239.051 192.513C241.427 196.666 247.366 206.798 248.079 207.795C248.792 208.791 249.267 209.954 248.316 211.366C247.366 212.695 246.772 213.608 245.347 214.771C243.922 215.934 242.259 217.429 240.952 218.342C239.408 219.422 237.982 220.501 239.645 222.578C241.427 224.654 247.247 231.381 256.037 236.862C267.203 243.839 276.705 246.081 279.675 247.078C282.644 248.157 284.426 247.991 286.089 246.579C287.752 245.251 293.335 240.6 295.354 238.523C297.373 236.53 299.274 236.862 302.006 237.527Z" fill="url(#paint20_linear_1380_16677)" fill-opacity="0.2"/>
<path fill-rule="evenodd" clip-rule="evenodd" d="M313.499 177.764C326.787 181.621 378.1 187.141 385.269 187.9C385.759 187.952 386.103 188.355 386.103 188.847C386.103 192.566 386.103 207.951 386.103 227.062C386.103 272.408 333.245 309.365 268.391 309.365C248.769 309.365 229.5 305.911 212.339 299.412C212.175 299.349 211.997 299.333 211.823 299.365L150.863 310.569C150.272 310.677 149.728 310.23 149.728 309.629C149.745 257.569 150.94 193.31 151.035 188.301C151.039 188.075 151.097 187.923 151.248 187.755C154.42 184.226 193.878 141.762 256.037 141.762C271.516 141.724 299.204 173.615 313.499 177.764ZM218.502 285.862C233.588 292.091 250.811 295.413 268.391 295.413C322.317 295.413 366.267 264.767 366.029 227.062C366.077 218.069 363.571 209.158 358.657 200.847C353.743 192.536 346.519 184.989 337.403 178.644C318.991 165.688 294.404 185.405 268.272 185.405C214.345 185.405 170.396 189.275 170.396 226.979C170.409 239.846 175.595 252.451 185.362 263.356L187.33 265.488C187.58 265.759 187.653 266.148 187.519 266.49L178.507 289.57C178.233 290.272 178.835 291.002 179.576 290.865L214.657 284.419C214.841 284.385 215.031 284.406 215.203 284.478L218.502 285.862Z" fill="url(#paint21_linear_1380_16677)"/>
<path fill-rule="evenodd" clip-rule="evenodd" d="M313.499 177.764C326.787 181.621 378.1 187.141 385.269 187.9C385.759 187.952 386.103 188.355 386.103 188.847C386.103 192.566 386.103 207.951 386.103 227.062C386.103 272.408 333.245 309.365 268.391 309.365C248.769 309.365 229.5 305.911 212.339 299.412C212.175 299.349 211.997 299.333 211.823 299.365L150.863 310.569C150.272 310.677 149.728 310.23 149.728 309.629C149.745 257.569 150.94 193.31 151.035 188.301C151.039 188.075 151.097 187.923 151.248 187.755C154.42 184.226 193.878 141.762 256.037 141.762C271.516 141.724 299.204 173.615 313.499 177.764ZM218.502 285.862C233.588 292.091 250.811 295.413 268.391 295.413C322.317 295.413 366.267 264.767 366.029 227.062C366.077 218.069 363.571 209.158 358.657 200.847C353.743 192.536 346.519 184.989 337.403 178.644C318.991 165.688 294.404 185.405 268.272 185.405C214.345 185.405 170.396 189.275 170.396 226.979C170.409 239.846 175.595 252.451 185.362 263.356L187.33 265.488C187.58 265.759 187.653 266.148 187.519 266.49L178.507 289.57C178.233 290.272 178.835 291.002 179.576 290.865L214.657 284.419C214.841 284.385 215.031 284.406 215.203 284.478L218.502 285.862Z" fill="url(#paint22_linear_1380_16677)" fill-opacity="0.2"/>
<path d="M322.08 244.254C319.11 243.257 304.619 238.274 302.006 237.527C299.274 236.862 297.373 236.53 295.354 238.523C293.335 240.6 287.752 245.251 286.089 246.579C284.426 247.991 282.644 248.157 279.675 247.078C276.705 246.081 267.203 243.839 256.037 236.862C247.247 231.381 241.427 224.654 239.645 222.578C237.982 220.501 239.408 219.422 240.952 218.342C242.259 217.429 243.922 215.934 245.347 214.771C246.772 213.608 247.366 212.695 248.316 211.366C249.267 209.954 248.792 208.791 248.079 207.795C247.366 206.798 241.427 196.666 239.051 192.513C236.676 188.527 234.181 189.025 232.4 188.942H226.698C224.679 188.942 221.591 189.441 218.859 191.517C216.245 193.593 208.643 198.576 208.643 208.708C208.643 218.787 219.105 228.538 220.617 229.948L220.64 229.969C222.066 231.381 241.427 252.144 270.885 261.03C277.893 263.189 283.357 264.435 287.633 265.349C294.641 266.927 301.055 266.678 306.163 266.179C311.865 265.598 323.624 261.196 326 256.379C328.494 251.562 328.494 247.493 327.663 246.579C326.831 245.666 325.049 245.251 322.08 244.254Z" fill="url(#paint23_linear_1380_16677)"/>
<path d="M322.08 244.254C319.11 243.257 304.619 238.274 302.006 237.527C299.274 236.862 297.373 236.53 295.354 238.523C293.335 240.6 287.752 245.251 286.089 246.579C284.426 247.991 282.644 248.157 279.675 247.078C276.705 246.081 267.203 243.839 256.037 236.862C247.247 231.381 241.427 224.654 239.645 222.578C237.982 220.501 239.408 219.422 240.952 218.342C242.259 217.429 243.922 215.934 245.347 214.771C246.772 213.608 247.366 212.695 248.316 211.366C249.267 209.954 248.792 208.791 248.079 207.795C247.366 206.798 241.427 196.666 239.051 192.513C236.676 188.527 234.181 189.025 232.4 188.942H226.698C224.679 188.942 221.591 189.441 218.859 191.517C216.245 193.593 208.643 198.576 208.643 208.708C208.643 218.787 219.105 228.538 220.617 229.948L220.64 229.969C222.066 231.381 241.427 252.144 270.885 261.03C277.893 263.189 283.357 264.435 287.633 265.349C294.641 266.927 301.055 266.678 306.163 266.179C311.865 265.598 323.624 261.196 326 256.379C328.494 251.562 328.494 247.493 327.663 246.579C326.831 245.666 325.049 245.251 322.08 244.254Z" fill="url(#paint24_linear_1380_16677)" fill-opacity="0.2"/>
<ellipse cx="270.592" cy="173.795" rx="91.7676" ry="66.0279" fill="url(#paint25_linear_1380_16677)"/>
<g opacity="0.3" filter="url(#filter2_f_1380_16677)">
<path fill-rule="evenodd" clip-rule="evenodd" d="M268.391 253.549C250.811 253.549 233.588 250.227 218.502 243.998L215.203 242.614C215.031 242.541 214.841 242.521 214.657 242.555L179.576 249.001C178.835 249.137 178.233 248.407 178.507 247.705L187.519 224.626C187.653 224.283 187.58 223.894 187.33 223.624L185.362 221.491C175.595 210.586 170.409 197.982 170.396 185.115C170.396 147.41 214.345 116.681 268.272 116.681C294.404 116.681 318.991 123.824 337.403 136.78C346.519 143.124 353.743 150.671 358.657 158.983C363.571 167.294 366.077 176.205 366.029 185.198C366.267 222.903 322.317 253.549 268.391 253.549ZM302.006 195.662C304.619 196.41 319.11 201.393 322.08 202.39C325.049 203.386 326.831 203.801 327.663 204.715C328.494 205.629 328.494 209.698 326 214.515C323.624 219.332 311.865 223.733 306.163 224.315C301.055 224.813 294.641 225.062 287.633 223.484C283.357 222.571 277.893 221.325 270.885 219.166C241.427 210.279 222.066 189.517 220.64 188.105L220.617 188.083C219.105 186.674 208.643 176.923 208.643 166.844C208.643 156.712 216.245 151.729 218.859 149.652C221.591 147.576 224.679 147.078 226.698 147.078H232.4C234.181 147.161 236.676 146.663 239.051 150.649C241.427 154.802 247.366 164.934 248.079 165.93C248.792 166.927 249.267 168.09 248.316 169.502C247.366 170.83 246.772 171.744 245.347 172.907C243.922 174.069 242.259 175.564 240.952 176.478C239.408 177.557 237.982 178.637 239.645 180.713C241.427 182.79 247.247 189.517 256.037 194.998C267.203 201.974 276.705 204.217 279.675 205.213C282.644 206.293 284.426 206.127 286.089 204.715C287.752 203.386 293.335 198.735 295.354 196.659C297.373 194.666 299.274 194.998 302.006 195.662Z" fill="url(#paint26_linear_1380_16677)"/>
<path fill-rule="evenodd" clip-rule="evenodd" d="M268.391 253.549C250.811 253.549 233.588 250.227 218.502 243.998L215.203 242.614C215.031 242.541 214.841 242.521 214.657 242.555L179.576 249.001C178.835 249.137 178.233 248.407 178.507 247.705L187.519 224.626C187.653 224.283 187.58 223.894 187.33 223.624L185.362 221.491C175.595 210.586 170.409 197.982 170.396 185.115C170.396 147.41 214.345 116.681 268.272 116.681C294.404 116.681 318.991 123.824 337.403 136.78C346.519 143.124 353.743 150.671 358.657 158.983C363.571 167.294 366.077 176.205 366.029 185.198C366.267 222.903 322.317 253.549 268.391 253.549ZM302.006 195.662C304.619 196.41 319.11 201.393 322.08 202.39C325.049 203.386 326.831 203.801 327.663 204.715C328.494 205.629 328.494 209.698 326 214.515C323.624 219.332 311.865 223.733 306.163 224.315C301.055 224.813 294.641 225.062 287.633 223.484C283.357 222.571 277.893 221.325 270.885 219.166C241.427 210.279 222.066 189.517 220.64 188.105L220.617 188.083C219.105 186.674 208.643 176.923 208.643 166.844C208.643 156.712 216.245 151.729 218.859 149.652C221.591 147.576 224.679 147.078 226.698 147.078H232.4C234.181 147.161 236.676 146.663 239.051 150.649C241.427 154.802 247.366 164.934 248.079 165.93C248.792 166.927 249.267 168.09 248.316 169.502C247.366 170.83 246.772 171.744 245.347 172.907C243.922 174.069 242.259 175.564 240.952 176.478C239.408 177.557 237.982 178.637 239.645 180.713C241.427 182.79 247.247 189.517 256.037 194.998C267.203 201.974 276.705 204.217 279.675 205.213C282.644 206.293 284.426 206.127 286.089 204.715C287.752 203.386 293.335 198.735 295.354 196.659C297.373 194.666 299.274 194.998 302.006 195.662Z" fill="url(#paint27_radial_1380_16677)" fill-opacity="0.2"/>
<path fill-rule="evenodd" clip-rule="evenodd" d="M268.391 253.549C250.811 253.549 233.588 250.227 218.502 243.998L215.203 242.614C215.031 242.541 214.841 242.521 214.657 242.555L179.576 249.001C178.835 249.137 178.233 248.407 178.507 247.705L187.519 224.626C187.653 224.283 187.58 223.894 187.33 223.624L185.362 221.491C175.595 210.586 170.409 197.982 170.396 185.115C170.396 147.41 214.345 116.681 268.272 116.681C294.404 116.681 318.991 123.824 337.403 136.78C346.519 143.124 353.743 150.671 358.657 158.983C363.571 167.294 366.077 176.205 366.029 185.198C366.267 222.903 322.317 253.549 268.391 253.549ZM302.006 195.662C304.619 196.41 319.11 201.393 322.08 202.39C325.049 203.386 326.831 203.801 327.663 204.715C328.494 205.629 328.494 209.698 326 214.515C323.624 219.332 311.865 223.733 306.163 224.315C301.055 224.813 294.641 225.062 287.633 223.484C283.357 222.571 277.893 221.325 270.885 219.166C241.427 210.279 222.066 189.517 220.64 188.105L220.617 188.083C219.105 186.674 208.643 176.923 208.643 166.844C208.643 156.712 216.245 151.729 218.859 149.652C221.591 147.576 224.679 147.078 226.698 147.078H232.4C234.181 147.161 236.676 146.663 239.051 150.649C241.427 154.802 247.366 164.934 248.079 165.93C248.792 166.927 249.267 168.09 248.316 169.502C247.366 170.83 246.772 171.744 245.347 172.907C243.922 174.069 242.259 175.564 240.952 176.478C239.408 177.557 237.982 178.637 239.645 180.713C241.427 182.79 247.247 189.517 256.037 194.998C267.203 201.974 276.705 204.217 279.675 205.213C282.644 206.293 284.426 206.127 286.089 204.715C287.752 203.386 293.335 198.735 295.354 196.659C297.373 194.666 299.274 194.998 302.006 195.662Z" fill="url(#paint28_radial_1380_16677)" fill-opacity="0.2"/>
<path fill-rule="evenodd" clip-rule="evenodd" d="M313.499 109.041C327.795 113.191 340.766 119.289 351.656 126.98C373.869 142.51 386.103 163.19 386.103 185.198C386.103 230.544 333.245 267.501 268.391 267.501C248.769 267.501 229.5 264.047 212.339 257.547C212.175 257.485 211.997 257.469 211.823 257.501L151.424 268.601C150.683 268.737 150.08 268.008 150.354 267.306L166.153 226.749C166.279 226.425 166.22 226.058 166.001 225.788C156.015 213.438 150.678 199.479 150.678 185.115C150.678 139.769 203.536 102.812 268.391 102.812C283.869 102.774 299.204 104.892 313.499 109.041ZM218.502 243.998C233.588 250.227 250.811 253.549 268.391 253.549C322.317 253.549 366.267 222.903 366.029 185.198C366.077 176.205 363.571 167.294 358.657 158.983C353.743 150.671 346.519 143.124 337.403 136.78C318.991 123.824 294.404 116.681 268.272 116.681C214.345 116.681 170.396 147.41 170.396 185.115C170.409 197.982 175.595 210.586 185.362 221.491L187.33 223.624C187.58 223.894 187.653 224.283 187.519 224.626L178.507 247.705C178.233 248.407 178.835 249.137 179.576 249.001L214.657 242.555C214.841 242.521 215.031 242.541 215.203 242.614L218.502 243.998Z" fill="url(#paint29_linear_1380_16677)"/>
<path fill-rule="evenodd" clip-rule="evenodd" d="M313.499 109.041C327.795 113.191 340.766 119.289 351.656 126.98C373.869 142.51 386.103 163.19 386.103 185.198C386.103 230.544 333.245 267.501 268.391 267.501C248.769 267.501 229.5 264.047 212.339 257.547C212.175 257.485 211.997 257.469 211.823 257.501L151.424 268.601C150.683 268.737 150.08 268.008 150.354 267.306L166.153 226.749C166.279 226.425 166.22 226.058 166.001 225.788C156.015 213.438 150.678 199.479 150.678 185.115C150.678 139.769 203.536 102.812 268.391 102.812C283.869 102.774 299.204 104.892 313.499 109.041ZM218.502 243.998C233.588 250.227 250.811 253.549 268.391 253.549C322.317 253.549 366.267 222.903 366.029 185.198C366.077 176.205 363.571 167.294 358.657 158.983C353.743 150.671 346.519 143.124 337.403 136.78C318.991 123.824 294.404 116.681 268.272 116.681C214.345 116.681 170.396 147.41 170.396 185.115C170.409 197.982 175.595 210.586 185.362 221.491L187.33 223.624C187.58 223.894 187.653 224.283 187.519 224.626L178.507 247.705C178.233 248.407 178.835 249.137 179.576 249.001L214.657 242.555C214.841 242.521 215.031 242.541 215.203 242.614L218.502 243.998Z" fill="url(#paint30_radial_1380_16677)" fill-opacity="0.2"/>
<path fill-rule="evenodd" clip-rule="evenodd" d="M313.499 109.041C327.795 113.191 340.766 119.289 351.656 126.98C373.869 142.51 386.103 163.19 386.103 185.198C386.103 230.544 333.245 267.501 268.391 267.501C248.769 267.501 229.5 264.047 212.339 257.547C212.175 257.485 211.997 257.469 211.823 257.501L151.424 268.601C150.683 268.737 150.08 268.008 150.354 267.306L166.153 226.749C166.279 226.425 166.22 226.058 166.001 225.788C156.015 213.438 150.678 199.479 150.678 185.115C150.678 139.769 203.536 102.812 268.391 102.812C283.869 102.774 299.204 104.892 313.499 109.041ZM218.502 243.998C233.588 250.227 250.811 253.549 268.391 253.549C322.317 253.549 366.267 222.903 366.029 185.198C366.077 176.205 363.571 167.294 358.657 158.983C353.743 150.671 346.519 143.124 337.403 136.78C318.991 123.824 294.404 116.681 268.272 116.681C214.345 116.681 170.396 147.41 170.396 185.115C170.409 197.982 175.595 210.586 185.362 221.491L187.33 223.624C187.58 223.894 187.653 224.283 187.519 224.626L178.507 247.705C178.233 248.407 178.835 249.137 179.576 249.001L214.657 242.555C214.841 242.521 215.031 242.541 215.203 242.614L218.502 243.998Z" fill="url(#paint31_radial_1380_16677)" fill-opacity="0.2"/>
</g>
<path fill-rule="evenodd" clip-rule="evenodd" d="M268.391 255.116C250.811 255.116 233.588 251.794 218.502 245.565L215.203 244.181C215.031 244.108 214.841 244.088 214.657 244.122L179.576 250.568C178.835 250.704 178.233 249.974 178.507 249.272L187.519 226.193C187.653 225.85 187.58 225.461 187.33 225.191L185.362 223.058C175.595 212.153 170.409 199.549 170.396 186.682C170.396 148.977 214.345 118.248 268.272 118.248C294.404 118.248 318.991 125.391 337.403 138.347C346.519 144.691 353.743 152.238 358.657 160.55C363.571 168.861 366.077 177.772 366.029 186.765C366.267 224.47 322.317 255.116 268.391 255.116ZM302.006 197.229C304.619 197.977 319.11 202.96 322.08 203.957C325.049 204.953 326.831 205.368 327.663 206.282C328.494 207.196 328.494 211.265 326 216.082C323.624 220.899 311.865 225.301 306.163 225.882C301.055 226.38 294.641 226.629 287.633 225.051C283.357 224.138 277.893 222.892 270.885 220.733C241.427 211.846 222.066 191.084 220.64 189.672L220.617 189.65C219.105 188.241 208.643 178.49 208.643 168.411C208.643 158.279 216.245 153.296 218.859 151.22C221.591 149.143 224.679 148.645 226.698 148.645H232.4C234.181 148.728 236.676 148.23 239.051 152.216C241.427 156.369 247.366 166.501 248.079 167.497C248.792 168.494 249.267 169.657 248.316 171.069C247.366 172.397 246.772 173.311 245.347 174.474C243.922 175.636 242.259 177.131 240.952 178.045C239.408 179.124 237.982 180.204 239.645 182.28C241.427 184.357 247.247 191.084 256.037 196.565C267.203 203.541 276.705 205.784 279.675 206.78C282.644 207.86 284.426 207.694 286.089 206.282C287.752 204.953 293.335 200.302 295.354 198.226C297.373 196.233 299.274 196.565 302.006 197.229Z" fill="url(#paint32_linear_1380_16677)"/>
<path fill-rule="evenodd" clip-rule="evenodd" d="M313.499 110.608C327.795 114.758 340.766 120.856 351.656 128.547C373.869 144.077 386.103 164.757 386.103 186.765C386.103 232.111 333.245 269.068 268.391 269.068C248.769 269.068 229.5 265.614 212.339 259.114C212.175 259.052 211.997 259.036 211.823 259.068L151.424 270.168C150.683 270.304 150.08 269.575 150.354 268.873L166.153 228.316C166.279 227.992 166.22 227.625 166.001 227.355C156.015 215.005 150.678 201.046 150.678 186.682C150.678 141.336 203.536 104.379 268.391 104.379C283.869 104.341 299.204 106.459 313.499 110.608ZM218.502 245.565C233.588 251.794 250.811 255.116 268.391 255.116C322.317 255.116 366.267 224.47 366.029 186.765C366.077 177.772 363.571 168.861 358.657 160.55C353.743 152.238 346.519 144.691 337.403 138.347C318.991 125.391 294.404 118.248 268.272 118.248C214.345 118.248 170.396 148.977 170.396 186.682C170.409 199.549 175.595 212.153 185.362 223.058L187.33 225.191C187.58 225.461 187.653 225.85 187.519 226.193L178.507 249.272C178.233 249.974 178.835 250.704 179.576 250.568L214.657 244.122C214.841 244.088 215.031 244.108 215.203 244.181L218.502 245.565Z" fill="url(#paint33_linear_1380_16677)"/>
<path fill-rule="evenodd" clip-rule="evenodd" d="M268.391 253.549C250.811 253.549 233.588 250.227 218.502 243.998L215.203 242.614C215.031 242.541 214.841 242.521 214.657 242.555L179.576 249.001C178.835 249.137 178.233 248.407 178.507 247.705L187.519 224.626C187.653 224.283 187.58 223.894 187.33 223.624L185.362 221.491C175.595 210.586 170.409 197.982 170.396 185.115C170.396 147.41 214.345 116.681 268.272 116.681C294.404 116.681 318.991 123.824 337.403 136.78C346.519 143.124 353.743 150.671 358.657 158.983C363.571 167.294 366.077 176.205 366.029 185.198C366.267 222.903 322.317 253.549 268.391 253.549ZM302.006 195.662C304.619 196.41 319.11 201.393 322.08 202.39C325.049 203.386 326.831 203.801 327.663 204.715C328.494 205.629 328.494 209.698 326 214.515C323.624 219.332 311.865 223.733 306.163 224.315C301.055 224.813 294.641 225.062 287.633 223.484C283.357 222.571 277.893 221.325 270.885 219.166C241.427 210.279 222.066 189.517 220.64 188.105L220.617 188.083C219.105 186.674 208.643 176.923 208.643 166.844C208.643 156.712 216.245 151.729 218.859 149.652C221.591 147.576 224.679 147.078 226.698 147.078H232.4C234.181 147.161 236.676 146.663 239.051 150.649C241.427 154.802 247.366 164.934 248.079 165.93C248.792 166.927 249.267 168.09 248.316 169.502C247.366 170.83 246.772 171.744 245.347 172.907C243.922 174.069 242.259 175.564 240.952 176.478C239.408 177.557 237.982 178.637 239.645 180.713C241.427 182.79 247.247 189.517 256.037 194.998C267.203 201.974 276.705 204.217 279.675 205.213C282.644 206.293 284.426 206.127 286.089 204.715C287.752 203.386 293.335 198.735 295.354 196.659C297.373 194.666 299.274 194.998 302.006 195.662Z" fill="url(#paint34_linear_1380_16677)"/>
<path fill-rule="evenodd" clip-rule="evenodd" d="M268.391 253.549C250.811 253.549 233.588 250.227 218.502 243.998L215.203 242.614C215.031 242.541 214.841 242.521 214.657 242.555L179.576 249.001C178.835 249.137 178.233 248.407 178.507 247.705L187.519 224.626C187.653 224.283 187.58 223.894 187.33 223.624L185.362 221.491C175.595 210.586 170.409 197.982 170.396 185.115C170.396 147.41 214.345 116.681 268.272 116.681C294.404 116.681 318.991 123.824 337.403 136.78C346.519 143.124 353.743 150.671 358.657 158.983C363.571 167.294 366.077 176.205 366.029 185.198C366.267 222.903 322.317 253.549 268.391 253.549ZM302.006 195.662C304.619 196.41 319.11 201.393 322.08 202.39C325.049 203.386 326.831 203.801 327.663 204.715C328.494 205.629 328.494 209.698 326 214.515C323.624 219.332 311.865 223.733 306.163 224.315C301.055 224.813 294.641 225.062 287.633 223.484C283.357 222.571 277.893 221.325 270.885 219.166C241.427 210.279 222.066 189.517 220.64 188.105L220.617 188.083C219.105 186.674 208.643 176.923 208.643 166.844C208.643 156.712 216.245 151.729 218.859 149.652C221.591 147.576 224.679 147.078 226.698 147.078H232.4C234.181 147.161 236.676 146.663 239.051 150.649C241.427 154.802 247.366 164.934 248.079 165.93C248.792 166.927 249.267 168.09 248.316 169.502C247.366 170.83 246.772 171.744 245.347 172.907C243.922 174.069 242.259 175.564 240.952 176.478C239.408 177.557 237.982 178.637 239.645 180.713C241.427 182.79 247.247 189.517 256.037 194.998C267.203 201.974 276.705 204.217 279.675 205.213C282.644 206.293 284.426 206.127 286.089 204.715C287.752 203.386 293.335 198.735 295.354 196.659C297.373 194.666 299.274 194.998 302.006 195.662Z" fill="url(#paint35_radial_1380_16677)" fill-opacity="0.2"/>
<path fill-rule="evenodd" clip-rule="evenodd" d="M268.391 253.549C250.811 253.549 233.588 250.227 218.502 243.998L215.203 242.614C215.031 242.541 214.841 242.521 214.657 242.555L179.576 249.001C178.835 249.137 178.233 248.407 178.507 247.705L187.519 224.626C187.653 224.283 187.58 223.894 187.33 223.624L185.362 221.491C175.595 210.586 170.409 197.982 170.396 185.115C170.396 147.41 214.345 116.681 268.272 116.681C294.404 116.681 318.991 123.824 337.403 136.78C346.519 143.124 353.743 150.671 358.657 158.983C363.571 167.294 366.077 176.205 366.029 185.198C366.267 222.903 322.317 253.549 268.391 253.549ZM302.006 195.662C304.619 196.41 319.11 201.393 322.08 202.39C325.049 203.386 326.831 203.801 327.663 204.715C328.494 205.629 328.494 209.698 326 214.515C323.624 219.332 311.865 223.733 306.163 224.315C301.055 224.813 294.641 225.062 287.633 223.484C283.357 222.571 277.893 221.325 270.885 219.166C241.427 210.279 222.066 189.517 220.64 188.105L220.617 188.083C219.105 186.674 208.643 176.923 208.643 166.844C208.643 156.712 216.245 151.729 218.859 149.652C221.591 147.576 224.679 147.078 226.698 147.078H232.4C234.181 147.161 236.676 146.663 239.051 150.649C241.427 154.802 247.366 164.934 248.079 165.93C248.792 166.927 249.267 168.09 248.316 169.502C247.366 170.83 246.772 171.744 245.347 172.907C243.922 174.069 242.259 175.564 240.952 176.478C239.408 177.557 237.982 178.637 239.645 180.713C241.427 182.79 247.247 189.517 256.037 194.998C267.203 201.974 276.705 204.217 279.675 205.213C282.644 206.293 284.426 206.127 286.089 204.715C287.752 203.386 293.335 198.735 295.354 196.659C297.373 194.666 299.274 194.998 302.006 195.662Z" fill="url(#paint36_radial_1380_16677)" fill-opacity="0.2"/>
<path fill-rule="evenodd" clip-rule="evenodd" d="M313.499 109.041C327.795 113.191 340.766 119.289 351.656 126.98C373.869 142.51 386.103 163.19 386.103 185.198C386.103 230.544 333.245 267.501 268.391 267.501C248.769 267.501 229.5 264.047 212.339 257.547C212.175 257.485 211.997 257.469 211.823 257.501L151.424 268.601C150.683 268.737 150.08 268.008 150.354 267.306L166.153 226.749C166.279 226.425 166.22 226.058 166.001 225.788C156.015 213.438 150.678 199.479 150.678 185.115C150.678 139.769 203.536 102.812 268.391 102.812C283.869 102.774 299.204 104.892 313.499 109.041ZM218.502 243.998C233.588 250.227 250.811 253.549 268.391 253.549C322.317 253.549 366.267 222.903 366.029 185.198C366.077 176.205 363.571 167.294 358.657 158.983C353.743 150.671 346.519 143.124 337.403 136.78C318.991 123.824 294.404 116.681 268.272 116.681C214.345 116.681 170.396 147.41 170.396 185.115C170.409 197.982 175.595 210.586 185.362 221.491L187.33 223.624C187.58 223.894 187.653 224.283 187.519 224.626L178.507 247.705C178.233 248.407 178.835 249.137 179.576 249.001L214.657 242.555C214.841 242.521 215.031 242.541 215.203 242.614L218.502 243.998Z" fill="url(#paint37_linear_1380_16677)"/>
<path fill-rule="evenodd" clip-rule="evenodd" d="M313.499 109.041C327.795 113.191 340.766 119.289 351.656 126.98C373.869 142.51 386.103 163.19 386.103 185.198C386.103 230.544 333.245 267.501 268.391 267.501C248.769 267.501 229.5 264.047 212.339 257.547C212.175 257.485 211.997 257.469 211.823 257.501L151.424 268.601C150.683 268.737 150.08 268.008 150.354 267.306L166.153 226.749C166.279 226.425 166.22 226.058 166.001 225.788C156.015 213.438 150.678 199.479 150.678 185.115C150.678 139.769 203.536 102.812 268.391 102.812C283.869 102.774 299.204 104.892 313.499 109.041ZM218.502 243.998C233.588 250.227 250.811 253.549 268.391 253.549C322.317 253.549 366.267 222.903 366.029 185.198C366.077 176.205 363.571 167.294 358.657 158.983C353.743 150.671 346.519 143.124 337.403 136.78C318.991 123.824 294.404 116.681 268.272 116.681C214.345 116.681 170.396 147.41 170.396 185.115C170.409 197.982 175.595 210.586 185.362 221.491L187.33 223.624C187.58 223.894 187.653 224.283 187.519 224.626L178.507 247.705C178.233 248.407 178.835 249.137 179.576 249.001L214.657 242.555C214.841 242.521 215.031 242.541 215.203 242.614L218.502 243.998Z" fill="url(#paint38_radial_1380_16677)" fill-opacity="0.2"/>
<path fill-rule="evenodd" clip-rule="evenodd" d="M313.499 109.041C327.795 113.191 340.766 119.289 351.656 126.98C373.869 142.51 386.103 163.19 386.103 185.198C386.103 230.544 333.245 267.501 268.391 267.501C248.769 267.501 229.5 264.047 212.339 257.547C212.175 257.485 211.997 257.469 211.823 257.501L151.424 268.601C150.683 268.737 150.08 268.008 150.354 267.306L166.153 226.749C166.279 226.425 166.22 226.058 166.001 225.788C156.015 213.438 150.678 199.479 150.678 185.115C150.678 139.769 203.536 102.812 268.391 102.812C283.869 102.774 299.204 104.892 313.499 109.041ZM218.502 243.998C233.588 250.227 250.811 253.549 268.391 253.549C322.317 253.549 366.267 222.903 366.029 185.198C366.077 176.205 363.571 167.294 358.657 158.983C353.743 150.671 346.519 143.124 337.403 136.78C318.991 123.824 294.404 116.681 268.272 116.681C214.345 116.681 170.396 147.41 170.396 185.115C170.409 197.982 175.595 210.586 185.362 221.491L187.33 223.624C187.58 223.894 187.653 224.283 187.519 224.626L178.507 247.705C178.233 248.407 178.835 249.137 179.576 249.001L214.657 242.555C214.841 242.521 215.031 242.541 215.203 242.614L218.502 243.998Z" fill="url(#paint39_radial_1380_16677)" fill-opacity="0.2"/>
<g opacity="0.32" filter="url(#filter3_f_1380_16677)">
<path fill-rule="evenodd" clip-rule="evenodd" d="M365.115 194.839C365.737 191.689 366.05 188.47 366.029 185.198C366.077 176.205 363.571 167.294 358.657 158.983C353.743 150.671 346.519 143.125 337.403 136.78C330.345 131.813 322.379 127.701 313.766 124.518C305.062 139.653 301.987 154.987 306.363 167.953C313.163 188.103 336.254 197.495 365.115 194.839Z" fill="url(#paint40_linear_1380_16677)"/>
<path fill-rule="evenodd" clip-rule="evenodd" d="M385.805 191.082C386.002 189.138 386.103 187.176 386.103 185.198C386.103 163.19 373.869 142.51 351.656 126.98C343.061 120.909 333.169 115.831 322.352 111.92C319.076 116.066 316.201 120.284 313.766 124.518C322.379 127.701 330.345 131.813 337.403 136.78C346.519 143.125 353.743 150.671 358.657 158.983C363.571 167.294 366.077 176.205 366.029 185.198C366.05 188.47 365.737 191.689 365.115 194.839C371.749 194.229 378.688 192.981 385.805 191.082Z" fill="url(#paint41_linear_1380_16677)"/>
<path fill-rule="evenodd" clip-rule="evenodd" d="M365.115 194.839C371.749 194.229 378.688 192.981 385.805 191.082C386.002 189.138 386.103 187.176 386.103 185.198C386.103 163.19 373.869 142.51 351.656 126.98C343.061 120.909 333.169 115.831 322.352 111.92C319.076 116.066 316.201 120.284 313.766 124.518C305.062 139.653 301.987 154.987 306.363 167.953C313.163 188.103 336.254 197.495 365.115 194.839Z" fill="url(#paint42_linear_1380_16677)"/>
</g>
<g opacity="0.32">
<path fill-rule="evenodd" clip-rule="evenodd" d="M365.115 194.839C365.737 191.689 366.05 188.47 366.029 185.198C366.077 176.205 363.571 167.294 358.657 158.983C353.743 150.671 346.519 143.125 337.403 136.78C330.345 131.813 322.379 127.701 313.766 124.518C305.062 139.653 301.987 154.987 306.363 167.953C313.163 188.103 336.254 197.495 365.115 194.839Z" fill="url(#paint43_linear_1380_16677)"/>
<path fill-rule="evenodd" clip-rule="evenodd" d="M385.805 191.082C386.002 189.138 386.103 187.176 386.103 185.198C386.103 163.19 373.869 142.51 351.656 126.98C343.061 120.909 333.169 115.831 322.352 111.92C319.076 116.066 316.201 120.284 313.766 124.518C322.379 127.701 330.345 131.813 337.403 136.78C346.519 143.125 353.743 150.671 358.657 158.983C363.571 167.294 366.077 176.205 366.029 185.198C366.05 188.47 365.737 191.689 365.115 194.839C371.749 194.229 378.688 192.981 385.805 191.082Z" fill="url(#paint44_linear_1380_16677)"/>
<path fill-rule="evenodd" clip-rule="evenodd" d="M365.115 194.839C371.749 194.229 378.688 192.981 385.805 191.082C386.002 189.138 386.103 187.176 386.103 185.198C386.103 163.19 373.869 142.51 351.656 126.98C343.061 120.909 333.169 115.831 322.352 111.92C319.076 116.066 316.201 120.284 313.766 124.518C305.062 139.653 301.987 154.987 306.363 167.953C313.163 188.103 336.254 197.495 365.115 194.839Z" fill="url(#paint45_linear_1380_16677)"/>
</g>
<g opacity="0.4">
<mask id="mask3_1380_16677" style="mask-type:alpha" maskUnits="userSpaceOnUse" x="361" y="53" width="14" height="62">
<rect width="13.265" height="60.5196" transform="matrix(-1 0 0 1 374.543 53.6689)" fill="url(#paint46_radial_1380_16677)"/>
</mask>
<g mask="url(#mask3_1380_16677)">
<rect opacity="0.5" width="6.39278" height="59.7302" transform="matrix(-1 0 0 1 374.543 54.4576)" fill="url(#paint47_linear_1380_16677)"/>
<rect opacity="0.5" x="361.278" y="54.4576" width="6.39278" height="59.7302" fill="url(#paint48_linear_1380_16677)"/>
</g>
</g>
<path d="M371.869 56.2213C373.522 55.2195 374.348 54.7187 374.505 54.1171C374.556 53.9229 374.556 53.7249 374.505 53.5307C374.348 52.9291 373.522 52.4283 371.869 51.4265C370.216 50.4248 369.39 49.9239 368.397 49.8286C368.077 49.7978 367.75 49.7978 367.43 49.8286C366.437 49.9239 365.611 50.4248 363.958 51.4265C362.305 52.4283 361.479 52.9291 361.322 53.5307C361.271 53.7249 361.271 53.9229 361.322 54.1171C361.479 54.7187 362.305 55.2195 363.958 56.2213C365.611 57.223 366.437 57.7239 367.43 57.8192C367.75 57.8499 368.077 57.8499 368.397 57.8192C369.39 57.7239 370.216 57.223 371.869 56.2213Z" fill="url(#paint49_linear_1380_16677)"/>
<path d="M371.869 56.2213C373.522 55.2195 374.348 54.7187 374.505 54.1171C374.556 53.9229 374.556 53.7249 374.505 53.5307C374.348 52.9291 373.522 52.4283 371.869 51.4265C370.216 50.4248 369.39 49.9239 368.397 49.8286C368.077 49.7978 367.75 49.7978 367.43 49.8286C366.437 49.9239 365.611 50.4248 363.958 51.4265C362.305 52.4283 361.479 52.9291 361.322 53.5307C361.271 53.7249 361.271 53.9229 361.322 54.1171C361.479 54.7187 362.305 55.2195 363.958 56.2213C365.611 57.223 366.437 57.7239 367.43 57.8192C367.75 57.8499 368.077 57.8499 368.397 57.8192C369.39 57.7239 370.216 57.223 371.869 56.2213Z" fill="white" fill-opacity="0.6"/>
<path d="M374.543 53.1617H361.278V53.801H374.543V53.1617Z" fill="url(#paint50_linear_1380_16677)"/>
<path d="M374.543 53.1617H361.278V53.801H374.543V53.1617Z" fill="white" fill-opacity="0.6"/>
<rect width="9.25056" height="9.25056" rx="2.55711" transform="matrix(-0.855186 -0.518321 -0.855186 0.518321 375.821 53.082)" fill="white"/>
<g opacity="0.4">
<mask id="mask4_1380_16677" style="mask-type:alpha" maskUnits="userSpaceOnUse" x="473" y="162" width="47" height="210">
<rect width="45.7294" height="208.634" transform="matrix(-1 0 0 1 519.593 162.947)" fill="url(#paint51_radial_1380_16677)"/>
</mask>
<g mask="url(#mask4_1380_16677)">
<rect opacity="0.5" width="22.0383" height="205.912" transform="matrix(-1 0 0 1 519.593 165.667)" fill="url(#paint52_linear_1380_16677)"/>
<rect opacity="0.5" x="473.863" y="165.667" width="22.0383" height="205.912" fill="url(#paint53_linear_1380_16677)"/>
</g>
</g>
<path d="M510.373 171.746C516.071 168.292 518.92 166.566 519.462 164.492C519.637 163.822 519.637 163.14 519.462 162.47C518.92 160.397 516.071 158.67 510.373 155.216C504.675 151.763 501.826 150.036 498.405 149.708C497.3 149.602 496.174 149.602 495.069 149.708C491.648 150.036 488.799 151.763 483.101 155.216C477.403 158.67 474.554 160.397 474.012 162.47C473.837 163.14 473.837 163.822 474.012 164.492C474.554 166.566 477.403 168.292 483.101 171.746C488.799 175.199 491.648 176.926 495.069 177.254C496.174 177.36 497.3 177.36 498.405 177.254C501.826 176.926 504.675 175.199 510.373 171.746Z" fill="url(#paint54_linear_1380_16677)"/>
<path d="M510.373 171.746C516.071 168.292 518.92 166.566 519.462 164.492C519.637 163.822 519.637 163.14 519.462 162.47C518.92 160.397 516.071 158.67 510.373 155.216C504.675 151.763 501.826 150.036 498.405 149.708C497.3 149.602 496.174 149.602 495.069 149.708C491.648 150.036 488.799 151.763 483.101 155.216C477.403 158.67 474.554 160.397 474.012 162.47C473.837 163.14 473.837 163.822 474.012 164.492C474.554 166.566 477.403 168.292 483.101 171.746C488.799 175.199 491.648 176.926 495.069 177.254C496.174 177.36 497.3 177.36 498.405 177.254C501.826 176.926 504.675 175.199 510.373 171.746Z" fill="white" fill-opacity="0.6"/>
<path d="M519.593 161.198H473.863V163.402H519.593V161.198Z" fill="url(#paint55_linear_1380_16677)"/>
<path d="M519.593 161.198H473.863V163.402H519.593V161.198Z" fill="white" fill-opacity="0.6"/>
<rect width="31.8901" height="31.8901" rx="8.81531" transform="matrix(-0.855186 -0.518321 -0.855186 0.518321 523.999 160.925)" fill="white"/>
<g opacity="0.4">
<mask id="mask5_1380_16677" style="mask-type:alpha" maskUnits="userSpaceOnUse" x="419" y="124" width="27" height="118">
<rect x="419.255" y="124.451" width="25.7599" height="117.526" fill="url(#paint56_radial_1380_16677)"/>
</mask>
<g mask="url(#mask5_1380_16677)">
<rect opacity="0.5" x="419.256" y="125.983" width="12.4144" height="115.993" fill="url(#paint57_linear_1380_16677)"/>
<rect opacity="0.5" width="12.4144" height="115.993" transform="matrix(-1 0 0 1 445.016 125.983)" fill="url(#paint58_linear_1380_16677)"/>
</g>
</g>
<path d="M424.449 129.407C421.239 127.462 419.634 126.489 419.329 125.321C419.231 124.944 419.231 124.56 419.329 124.182C419.634 123.014 421.239 122.042 424.449 120.096C427.659 118.151 429.263 117.178 431.191 116.993C431.813 116.933 432.447 116.933 433.07 116.993C434.997 117.178 436.602 118.151 439.812 120.096C443.021 122.042 444.626 123.014 444.931 124.182C445.03 124.56 445.03 124.944 444.931 125.321C444.626 126.489 443.021 127.462 439.812 129.407C436.602 131.353 434.997 132.325 433.07 132.51C432.447 132.57 431.813 132.57 431.191 132.51C429.263 132.325 427.659 131.353 424.449 129.407Z" fill="url(#paint59_linear_1380_16677)"/>
<path d="M424.449 129.407C421.239 127.462 419.634 126.489 419.329 125.321C419.231 124.944 419.231 124.56 419.329 124.182C419.634 123.014 421.239 122.042 424.449 120.096C427.659 118.151 429.263 117.178 431.191 116.993C431.813 116.933 432.447 116.933 433.07 116.993C434.997 117.178 436.602 118.151 439.812 120.096C443.021 122.042 444.626 123.014 444.931 124.182C445.03 124.56 445.03 124.944 444.931 125.321C444.626 126.489 443.021 127.462 439.812 129.407C436.602 131.353 434.997 132.325 433.07 132.51C432.447 132.57 431.813 132.57 431.191 132.51C429.263 132.325 427.659 131.353 424.449 129.407Z" fill="white" fill-opacity="0.6"/>
<path d="M419.255 123.466H445.015V124.707H419.255V123.466Z" fill="url(#paint60_linear_1380_16677)"/>
<path d="M419.255 123.466H445.015V124.707H419.255V123.466Z" fill="white" fill-opacity="0.6"/>
<rect width="17.9641" height="17.9641" rx="4.96577" transform="matrix(0.855186 -0.518321 0.855186 0.518321 416.774 123.312)" fill="white"/>
<g opacity="0.4">
<mask id="mask6_1380_16677" style="mask-type:alpha" maskUnits="userSpaceOnUse" x="69" y="298" width="27" height="119">
<rect x="69.4833" y="298.739" width="25.7599" height="117.526" fill="url(#paint61_radial_1380_16677)"/>
</mask>
<g mask="url(#mask6_1380_16677)">
<rect opacity="0.5" x="69.4834" y="300.271" width="12.4144" height="115.993" fill="url(#paint62_linear_1380_16677)"/>
<rect opacity="0.5" width="12.4144" height="115.993" transform="matrix(-1 0 0 1 95.2437 300.271)" fill="url(#paint63_linear_1380_16677)"/>
</g>
</g>
<path d="M74.6767 303.695C71.4671 301.75 69.8622 300.777 69.557 299.609C69.4584 299.232 69.4584 298.848 69.557 298.47C69.8622 297.302 71.4671 296.33 74.6767 294.384C77.8864 292.439 79.4912 291.466 81.4185 291.281C82.041 291.222 82.6751 291.222 83.2975 291.281C85.2249 291.466 86.8297 292.439 90.0393 294.384C93.249 296.33 94.8538 297.302 95.1591 298.47C95.2577 298.848 95.2577 299.232 95.1591 299.609C94.8538 300.777 93.249 301.75 90.0393 303.695C86.8297 305.641 85.2249 306.613 83.2975 306.798C82.6751 306.858 82.041 306.858 81.4185 306.798C79.4912 306.613 77.8864 305.641 74.6767 303.695Z" fill="url(#paint64_linear_1380_16677)"/>
<path d="M74.6767 303.695C71.4671 301.75 69.8622 300.777 69.557 299.609C69.4584 299.232 69.4584 298.848 69.557 298.47C69.8622 297.302 71.4671 296.33 74.6767 294.384C77.8864 292.439 79.4912 291.466 81.4185 291.281C82.041 291.222 82.6751 291.222 83.2975 291.281C85.2249 291.466 86.8297 292.439 90.0393 294.384C93.249 296.33 94.8538 297.302 95.1591 298.47C95.2577 298.848 95.2577 299.232 95.1591 299.609C94.8538 300.777 93.249 301.75 90.0393 303.695C86.8297 305.641 85.2249 306.613 83.2975 306.798C82.6751 306.858 82.041 306.858 81.4185 306.798C79.4912 306.613 77.8864 305.641 74.6767 303.695Z" fill="white" fill-opacity="0.6"/>
<path d="M69.483 297.754H95.2429V298.995H69.483V297.754Z" fill="url(#paint65_linear_1380_16677)"/>
<path d="M69.483 297.754H95.2429V298.995H69.483V297.754Z" fill="white" fill-opacity="0.6"/>
<rect width="17.9641" height="17.9641" rx="4.96577" transform="matrix(0.855186 -0.518321 0.855186 0.518321 67.002 297.6)" fill="white"/>
<g opacity="0.4">
<mask id="mask7_1380_16677" style="mask-type:alpha" maskUnits="userSpaceOnUse" x="158" y="424" width="73" height="126">
<rect x="158.096" y="424.41" width="72.5237" height="125.59" fill="url(#paint66_radial_1380_16677)"/>
</mask>
<g mask="url(#mask7_1380_16677)">
<rect opacity="0.5" x="158.096" y="426.048" width="34.9512" height="123.952" fill="url(#paint67_linear_1380_16677)"/>
<rect opacity="0.1" width="34.9512" height="123.952" transform="matrix(-1 0 0 1 230.62 426.048)" fill="url(#paint68_linear_1380_16677)"/>
</g>
</g>
<path d="M172.724 440.502C163.684 434.414 159.164 431.37 158.304 427.715C158.027 426.534 158.027 425.332 158.304 424.151C159.164 420.495 163.684 417.452 172.724 411.364C181.763 405.277 186.283 402.233 191.711 401.654C193.464 401.467 195.25 401.467 197.003 401.654C202.431 402.233 206.951 405.277 215.99 411.364C225.03 417.452 229.55 420.495 230.409 424.151C230.687 425.332 230.687 426.534 230.409 427.715C229.55 431.37 225.03 434.414 215.99 440.502C206.951 446.589 202.431 449.633 197.003 450.212C195.25 450.399 193.464 450.399 191.711 450.212C186.283 449.633 181.763 446.589 172.724 440.502Z" fill="url(#paint69_linear_1380_16677)"/>
<path d="M172.724 440.502C163.684 434.414 159.164 431.37 158.304 427.715C158.027 426.534 158.027 425.332 158.304 424.151C159.164 420.495 163.684 417.452 172.724 411.364C181.763 405.277 186.283 402.233 191.711 401.654C193.464 401.467 195.25 401.467 197.003 401.654C202.431 402.233 206.951 405.277 215.99 411.364C225.03 417.452 229.55 420.495 230.409 424.151C230.687 425.332 230.687 426.534 230.409 427.715C229.55 431.37 225.03 434.414 215.99 440.502C206.951 446.589 202.431 449.633 197.003 450.212C195.25 450.399 193.464 450.399 191.711 450.212C186.283 449.633 181.763 446.589 172.724 440.502Z" fill="white" fill-opacity="0.6"/>
<path d="M158.096 421.909H230.646V425.794H158.096V421.909Z" fill="url(#paint70_linear_1380_16677)"/>
<path d="M158.096 421.909H230.646V425.794H158.096V421.909Z" fill="white" fill-opacity="0.6"/>
<rect width="52.8714" height="52.8714" rx="15.5394" transform="matrix(0.82945 -0.558581 0.82945 0.558581 150.52 421.425)" fill="white"/>
<defs>
<filter id="filter0_f_1380_16677" x="84.628" y="162.373" width="412.583" height="298.645" filterUnits="userSpaceOnUse" color-interpolation-filters="sRGB">
<feFlood flood-opacity="0" result="BackgroundImageFix"/>
<feBlend mode="normal" in="SourceGraphic" in2="BackgroundImageFix" result="shape"/>
<feGaussianBlur stdDeviation="15.9211" result="effect1_foregroundBlur_1380_16677"/>
</filter>
<filter id="filter1_f_1380_16677" x="137.045" y="178.73" width="264.926" height="194.915" filterUnits="userSpaceOnUse" color-interpolation-filters="sRGB">
<feFlood flood-opacity="0" result="BackgroundImageFix"/>
<feBlend mode="normal" in="SourceGraphic" in2="BackgroundImageFix" result="shape"/>
<feGaussianBlur stdDeviation="7.27729" result="effect1_foregroundBlur_1380_16677"/>
</filter>
<filter id="filter2_f_1380_16677" x="134.619" y="87.1439" width="267.152" height="197.142" filterUnits="userSpaceOnUse" color-interpolation-filters="sRGB">
<feFlood flood-opacity="0" result="BackgroundImageFix"/>
<feBlend mode="normal" in="SourceGraphic" in2="BackgroundImageFix" result="shape"/>
<feGaussianBlur stdDeviation="7.83382" result="effect1_foregroundBlur_1380_16677"/>
</filter>
<filter id="filter3_f_1380_16677" x="288.719" y="96.2528" width="113.052" height="114.695" filterUnits="userSpaceOnUse" color-interpolation-filters="sRGB">
<feFlood flood-opacity="0" result="BackgroundImageFix"/>
<feBlend mode="normal" in="SourceGraphic" in2="BackgroundImageFix" result="shape"/>
<feGaussianBlur stdDeviation="7.83382" result="effect1_foregroundBlur_1380_16677"/>
</filter>
<radialGradient id="paint0_radial_1380_16677" cx="0" cy="0" r="1" gradientUnits="userSpaceOnUse" gradientTransform="translate(15.9318) rotate(90.0757) scale(143.642 75.6806)">
<stop stop-opacity="0"/>
<stop offset="0.221563"/>
<stop offset="1" stop-opacity="0"/>
</radialGradient>
<linearGradient id="paint1_linear_1380_16677" x1="15.1731" y1="39.6578" x2="-9.56921e-07" y2="39.6578" gradientUnits="userSpaceOnUse">
<stop stop-color="white" stop-opacity="0"/>
<stop offset="1" stop-color="white"/>
</linearGradient>
<linearGradient id="paint2_linear_1380_16677" x1="193.207" y1="125.591" x2="178.034" y2="125.591" gradientUnits="userSpaceOnUse">
<stop stop-color="white" stop-opacity="0"/>
<stop offset="1" stop-color="white"/>
</linearGradient>
<linearGradient id="paint3_linear_1380_16677" x1="209.519" y1="84.3742" x2="178.034" y2="84.3742" gradientUnits="userSpaceOnUse">
<stop stop-color="#E3E3E3"/>
<stop offset="0.21988" stop-color="#99C2FF"/>
<stop offset="0.512048" stop-color="#F48DA5"/>
<stop offset="0.75" stop-color="#A699DC"/>
<stop offset="1" stop-color="#E3E3E3"/>
</linearGradient>
<linearGradient id="paint4_linear_1380_16677" x1="209.519" y1="84.3742" x2="178.034" y2="84.3742" gradientUnits="userSpaceOnUse">
<stop stop-color="#E3E3E3"/>
<stop offset="0.21988" stop-color="#99C2FF"/>
<stop offset="0.512048" stop-color="#F48DA5"/>
<stop offset="0.75" stop-color="#A699DC"/>
<stop offset="1" stop-color="#E3E3E3"/>
</linearGradient>
<radialGradient id="paint5_radial_1380_16677" cx="0" cy="0" r="1" gradientUnits="userSpaceOnUse" gradientTransform="translate(6.71241) rotate(90.0757) scale(60.5197 31.8858)">
<stop stop-opacity="0"/>
<stop offset="0.221563"/>
<stop offset="1" stop-opacity="0"/>
</radialGradient>
<linearGradient id="paint6_linear_1380_16677" x1="6.39278" y1="16.7087" x2="-4.03171e-07" y2="16.7087" gradientUnits="userSpaceOnUse">
<stop stop-color="white" stop-opacity="0"/>
<stop offset="1" stop-color="white"/>
</linearGradient>
<linearGradient id="paint7_linear_1380_16677" x1="402.671" y1="446.166" x2="396.278" y2="446.166" gradientUnits="userSpaceOnUse">
<stop stop-color="white" stop-opacity="0"/>
<stop offset="1" stop-color="white"/>
</linearGradient>
<linearGradient id="paint8_linear_1380_16677" x1="409.543" y1="428.801" x2="396.278" y2="428.801" gradientUnits="userSpaceOnUse">
<stop stop-color="#E3E3E3"/>
<stop offset="0.21988" stop-color="#99C2FF"/>
<stop offset="0.512048" stop-color="#F48DA5"/>
<stop offset="0.75" stop-color="#A699DC"/>
<stop offset="1" stop-color="#E3E3E3"/>
</linearGradient>
<linearGradient id="paint9_linear_1380_16677" x1="409.543" y1="428.801" x2="396.278" y2="428.801" gradientUnits="userSpaceOnUse">
<stop stop-color="#E3E3E3"/>
<stop offset="0.21988" stop-color="#99C2FF"/>
<stop offset="0.512048" stop-color="#F48DA5"/>
<stop offset="0.75" stop-color="#A699DC"/>
<stop offset="1" stop-color="#E3E3E3"/>
</linearGradient>
<radialGradient id="paint10_radial_1380_16677" cx="0" cy="0" r="1" gradientUnits="userSpaceOnUse" gradientTransform="translate(293.096 254) rotate(90.4058) scale(296.007 836.487)">
<stop stop-opacity="0"/>
<stop offset="0.221563"/>
<stop offset="1" stop-opacity="0"/>
</radialGradient>
<linearGradient id="paint11_linear_1380_16677" x1="285" y1="352.599" x2="117" y2="352.599" gradientUnits="userSpaceOnUse">
<stop stop-color="white" stop-opacity="0"/>
<stop offset="1" stop-color="white"/>
</linearGradient>
<linearGradient id="paint12_linear_1380_16677" x1="168" y1="85.5991" x2="-1.05952e-05" y2="85.5991" gradientUnits="userSpaceOnUse">
<stop stop-color="white" stop-opacity="0"/>
<stop offset="1" stop-color="white"/>
</linearGradient>
<linearGradient id="paint13_linear_1380_16677" x1="116.594" y1="260.158" x2="465.212" y2="260.158" gradientUnits="userSpaceOnUse">
<stop stop-color="#E3E3E3"/>
<stop offset="0.21988" stop-color="#99C2FF"/>
<stop offset="0.512048" stop-color="#F48DA5"/>
<stop offset="0.75" stop-color="#A699DC"/>
<stop offset="1" stop-color="#E3E3E3"/>
</linearGradient>
<linearGradient id="paint14_linear_1380_16677" x1="116.594" y1="260.158" x2="465.212" y2="260.158" gradientUnits="userSpaceOnUse">
<stop stop-color="#E3E3E3"/>
<stop offset="0.21988" stop-color="#99C2FF"/>
<stop offset="0.512048" stop-color="#F48DA5"/>
<stop offset="0.75" stop-color="#A699DC"/>
<stop offset="1" stop-color="#E3E3E3"/>
</linearGradient>
<radialGradient id="paint15_radial_1380_16677" cx="0" cy="0" r="1" gradientUnits="userSpaceOnUse" gradientTransform="translate(220.701 337.545) rotate(-69.4146) scale(29.1689 59.1695)">
<stop stop-color="white"/>
<stop offset="1" stop-color="white" stop-opacity="0"/>
</radialGradient>
<radialGradient id="paint16_radial_1380_16677" cx="0" cy="0" r="1" gradientUnits="userSpaceOnUse" gradientTransform="translate(308.494 217.637) rotate(156.19) scale(108.559 30.998)">
<stop stop-color="#B78AFF"/>
<stop offset="1" stop-color="#8233FF" stop-opacity="0"/>
</radialGradient>
<radialGradient id="paint17_radial_1380_16677" cx="0" cy="0" r="1" gradientUnits="userSpaceOnUse" gradientTransform="translate(220.701 337.545) rotate(-69.4146) scale(29.1689 59.1695)">
<stop stop-color="white"/>
<stop offset="1" stop-color="white" stop-opacity="0"/>
</radialGradient>
<radialGradient id="paint18_radial_1380_16677" cx="0" cy="0" r="1" gradientUnits="userSpaceOnUse" gradientTransform="translate(308.494 217.637) rotate(156.19) scale(108.559 30.998)">
<stop stop-color="#B78AFF"/>
<stop offset="1" stop-color="#8233FF" stop-opacity="0"/>
</radialGradient>
<linearGradient id="paint19_linear_1380_16677" x1="386.981" y1="212.964" x2="139.656" y2="212.964" gradientUnits="userSpaceOnUse">
<stop stop-color="#1EB749"/>
<stop offset="0.143921" stop-color="#22D76A"/>
<stop offset="0.490941" stop-color="#21FF5F"/>
<stop offset="0.894441" stop-color="#23E258"/>
<stop offset="1" stop-color="#1EB749"/>
</linearGradient>
<linearGradient id="paint20_linear_1380_16677" x1="160.89" y1="267.685" x2="273.168" y2="267.685" gradientUnits="userSpaceOnUse">
<stop offset="0.369908" stop-color="white" stop-opacity="0"/>
<stop offset="0.461462" stop-color="#16FF8F"/>
<stop offset="0.483342" stop-color="white" stop-opacity="0"/>
</linearGradient>
<linearGradient id="paint21_linear_1380_16677" x1="386.981" y1="212.964" x2="139.656" y2="212.964" gradientUnits="userSpaceOnUse">
<stop stop-color="#1EB749"/>
<stop offset="0.143921" stop-color="#22D76A"/>
<stop offset="0.490941" stop-color="#21FF5F"/>
<stop offset="0.894441" stop-color="#23E258"/>
<stop offset="1" stop-color="#1EB749"/>
</linearGradient>
<linearGradient id="paint22_linear_1380_16677" x1="160.89" y1="267.685" x2="273.168" y2="267.685" gradientUnits="userSpaceOnUse">
<stop offset="0.369908" stop-color="white" stop-opacity="0"/>
<stop offset="0.461462" stop-color="#16FF8F"/>
<stop offset="0.483342" stop-color="white" stop-opacity="0"/>
</linearGradient>
<linearGradient id="paint23_linear_1380_16677" x1="386.981" y1="212.964" x2="139.656" y2="212.964" gradientUnits="userSpaceOnUse">
<stop stop-color="#1EB749"/>
<stop offset="0.143921" stop-color="#22D76A"/>
<stop offset="0.490941" stop-color="#21FF5F"/>
<stop offset="0.894441" stop-color="#23E258"/>
<stop offset="1" stop-color="#1EB749"/>
</linearGradient>
<linearGradient id="paint24_linear_1380_16677" x1="160.89" y1="267.685" x2="273.168" y2="267.685" gradientUnits="userSpaceOnUse">
<stop offset="0.369908" stop-color="white" stop-opacity="0"/>
<stop offset="0.461462" stop-color="#16FF8F"/>
<stop offset="0.483342" stop-color="white" stop-opacity="0"/>
</linearGradient>
<linearGradient id="paint25_linear_1380_16677" x1="229.898" y1="101.271" x2="367.603" y2="279.153" gradientUnits="userSpaceOnUse">
<stop stop-color="#27AA4B"/>
<stop offset="1" stop-color="#1F9440"/>
</linearGradient>
<linearGradient id="paint26_linear_1380_16677" x1="393.796" y1="233.594" x2="316.015" y2="312.861" gradientUnits="userSpaceOnUse">
<stop stop-color="#34FF85"/>
<stop offset="1" stop-color="#23CD53"/>
</linearGradient>
<radialGradient id="paint27_radial_1380_16677" cx="0" cy="0" r="1" gradientUnits="userSpaceOnUse" gradientTransform="translate(219.388 247.072) rotate(-69.4146) scale(29.1689 59.1695)">
<stop stop-color="white"/>
<stop offset="1" stop-color="white" stop-opacity="0"/>
</radialGradient>
<radialGradient id="paint28_radial_1380_16677" cx="0" cy="0" r="1" gradientUnits="userSpaceOnUse" gradientTransform="translate(307.181 127.163) rotate(156.19) scale(108.559 30.998)">
<stop stop-color="#B78AFF"/>
<stop offset="1" stop-color="#8233FF" stop-opacity="0"/>
</radialGradient>
<linearGradient id="paint29_linear_1380_16677" x1="393.796" y1="233.594" x2="316.015" y2="312.861" gradientUnits="userSpaceOnUse">
<stop stop-color="#34FF85"/>
<stop offset="1" stop-color="#23CD53"/>
</linearGradient>
<radialGradient id="paint30_radial_1380_16677" cx="0" cy="0" r="1" gradientUnits="userSpaceOnUse" gradientTransform="translate(219.388 247.072) rotate(-69.4146) scale(29.1689 59.1695)">
<stop stop-color="white"/>
<stop offset="1" stop-color="white" stop-opacity="0"/>
</radialGradient>
<radialGradient id="paint31_radial_1380_16677" cx="0" cy="0" r="1" gradientUnits="userSpaceOnUse" gradientTransform="translate(307.181 127.163) rotate(156.19) scale(108.559 30.998)">
<stop stop-color="#B78AFF"/>
<stop offset="1" stop-color="#8233FF" stop-opacity="0"/>
</radialGradient>
<linearGradient id="paint32_linear_1380_16677" x1="393.796" y1="235.161" x2="310.11" y2="354.634" gradientUnits="userSpaceOnUse">
<stop stop-color="#34FF85"/>
<stop offset="0.613503" stop-color="#CDFFDB"/>
<stop offset="1" stop-color="#23CD53"/>
</linearGradient>
<linearGradient id="paint33_linear_1380_16677" x1="393.796" y1="235.161" x2="310.11" y2="354.634" gradientUnits="userSpaceOnUse">
<stop stop-color="#34FF85"/>
<stop offset="0.613503" stop-color="#CDFFDB"/>
<stop offset="1" stop-color="#23CD53"/>
</linearGradient>
<linearGradient id="paint34_linear_1380_16677" x1="393.796" y1="233.594" x2="316.015" y2="312.861" gradientUnits="userSpaceOnUse">
<stop stop-color="#34FF85"/>
<stop offset="1" stop-color="#23CD53"/>
</linearGradient>
<radialGradient id="paint35_radial_1380_16677" cx="0" cy="0" r="1" gradientUnits="userSpaceOnUse" gradientTransform="translate(219.388 247.072) rotate(-69.4146) scale(29.1689 59.1695)">
<stop stop-color="white"/>
<stop offset="1" stop-color="white" stop-opacity="0"/>
</radialGradient>
<radialGradient id="paint36_radial_1380_16677" cx="0" cy="0" r="1" gradientUnits="userSpaceOnUse" gradientTransform="translate(307.181 127.163) rotate(156.19) scale(108.559 30.998)">
<stop stop-color="#B78AFF"/>
<stop offset="1" stop-color="#8233FF" stop-opacity="0"/>
</radialGradient>
<linearGradient id="paint37_linear_1380_16677" x1="393.796" y1="233.594" x2="316.015" y2="312.861" gradientUnits="userSpaceOnUse">
<stop stop-color="#34FF85"/>
<stop offset="1" stop-color="#23CD53"/>
</linearGradient>
<radialGradient id="paint38_radial_1380_16677" cx="0" cy="0" r="1" gradientUnits="userSpaceOnUse" gradientTransform="translate(219.388 247.072) rotate(-69.4146) scale(29.1689 59.1695)">
<stop stop-color="white"/>
<stop offset="1" stop-color="white" stop-opacity="0"/>
</radialGradient>
<radialGradient id="paint39_radial_1380_16677" cx="0" cy="0" r="1" gradientUnits="userSpaceOnUse" gradientTransform="translate(307.181 127.163) rotate(156.19) scale(108.559 30.998)">
<stop stop-color="#B78AFF"/>
<stop offset="1" stop-color="#8233FF" stop-opacity="0"/>
</radialGradient>
<linearGradient id="paint40_linear_1380_16677" x1="304.356" y1="184.687" x2="347.025" y2="124.346" gradientUnits="userSpaceOnUse">
<stop stop-color="white"/>
<stop offset="1" stop-color="white" stop-opacity="0"/>
</linearGradient>
<linearGradient id="paint41_linear_1380_16677" x1="304.356" y1="184.687" x2="347.025" y2="124.346" gradientUnits="userSpaceOnUse">
<stop stop-color="white"/>
<stop offset="1" stop-color="white" stop-opacity="0"/>
</linearGradient>
<linearGradient id="paint42_linear_1380_16677" x1="304.356" y1="184.687" x2="347.025" y2="124.346" gradientUnits="userSpaceOnUse">
<stop stop-color="white"/>
<stop offset="1" stop-color="white" stop-opacity="0"/>
</linearGradient>
<linearGradient id="paint43_linear_1380_16677" x1="304.356" y1="184.687" x2="347.025" y2="124.346" gradientUnits="userSpaceOnUse">
<stop stop-color="white"/>
<stop offset="1" stop-color="white" stop-opacity="0"/>
</linearGradient>
<linearGradient id="paint44_linear_1380_16677" x1="304.356" y1="184.687" x2="347.025" y2="124.346" gradientUnits="userSpaceOnUse">
<stop stop-color="white"/>
<stop offset="1" stop-color="white" stop-opacity="0"/>
</linearGradient>
<linearGradient id="paint45_linear_1380_16677" x1="304.356" y1="184.687" x2="347.025" y2="124.346" gradientUnits="userSpaceOnUse">
<stop stop-color="white"/>
<stop offset="1" stop-color="white" stop-opacity="0"/>
</linearGradient>
<radialGradient id="paint46_radial_1380_16677" cx="0" cy="0" r="1" gradientUnits="userSpaceOnUse" gradientTransform="translate(6.71241) rotate(90.0757) scale(60.5197 31.8858)">
<stop stop-opacity="0"/>
<stop offset="0.221563"/>
<stop offset="1" stop-opacity="0"/>
</radialGradient>
<linearGradient id="paint47_linear_1380_16677" x1="6.39278" y1="16.7087" x2="-4.03171e-07" y2="16.7087" gradientUnits="userSpaceOnUse">
<stop stop-color="white" stop-opacity="0"/>
<stop offset="1" stop-color="white"/>
</linearGradient>
<linearGradient id="paint48_linear_1380_16677" x1="367.671" y1="71.1663" x2="361.278" y2="71.1663" gradientUnits="userSpaceOnUse">
<stop stop-color="white" stop-opacity="0"/>
<stop offset="1" stop-color="white"/>
</linearGradient>
<linearGradient id="paint49_linear_1380_16677" x1="374.543" y1="53.801" x2="361.278" y2="53.801" gradientUnits="userSpaceOnUse">
<stop stop-color="#E3E3E3"/>
<stop offset="0.21988" stop-color="#99C2FF"/>
<stop offset="0.512048" stop-color="#F48DA5"/>
<stop offset="0.75" stop-color="#A699DC"/>
<stop offset="1" stop-color="#E3E3E3"/>
</linearGradient>
<linearGradient id="paint50_linear_1380_16677" x1="374.543" y1="53.801" x2="361.278" y2="53.801" gradientUnits="userSpaceOnUse">
<stop stop-color="#E3E3E3"/>
<stop offset="0.21988" stop-color="#99C2FF"/>
<stop offset="0.512048" stop-color="#F48DA5"/>
<stop offset="0.75" stop-color="#A699DC"/>
<stop offset="1" stop-color="#E3E3E3"/>
</linearGradient>
<radialGradient id="paint51_radial_1380_16677" cx="0" cy="0" r="1" gradientUnits="userSpaceOnUse" gradientTransform="translate(23.1402 1.37994e-06) rotate(90.0757) scale(208.634 109.922)">
<stop stop-opacity="0"/>
<stop offset="0.221563"/>
<stop offset="1" stop-opacity="0"/>
</radialGradient>
<linearGradient id="paint52_linear_1380_16677" x1="22.0383" y1="57.6011" x2="-1.38988e-06" y2="57.6011" gradientUnits="userSpaceOnUse">
<stop stop-color="white" stop-opacity="0"/>
<stop offset="1" stop-color="white"/>
</linearGradient>
<linearGradient id="paint53_linear_1380_16677" x1="495.901" y1="223.268" x2="473.863" y2="223.268" gradientUnits="userSpaceOnUse">
<stop stop-color="white" stop-opacity="0"/>
<stop offset="1" stop-color="white"/>
</linearGradient>
<linearGradient id="paint54_linear_1380_16677" x1="519.593" y1="163.402" x2="473.863" y2="163.402" gradientUnits="userSpaceOnUse">
<stop stop-color="#E3E3E3"/>
<stop offset="0.21988" stop-color="#99C2FF"/>
<stop offset="0.512048" stop-color="#F48DA5"/>
<stop offset="0.75" stop-color="#A699DC"/>
<stop offset="1" stop-color="#E3E3E3"/>
</linearGradient>
<linearGradient id="paint55_linear_1380_16677" x1="519.593" y1="163.402" x2="473.863" y2="163.402" gradientUnits="userSpaceOnUse">
<stop stop-color="#E3E3E3"/>
<stop offset="0.21988" stop-color="#99C2FF"/>
<stop offset="0.512048" stop-color="#F48DA5"/>
<stop offset="0.75" stop-color="#A699DC"/>
<stop offset="1" stop-color="#E3E3E3"/>
</linearGradient>
<radialGradient id="paint56_radial_1380_16677" cx="0" cy="0" r="1" gradientUnits="userSpaceOnUse" gradientTransform="translate(432.291 124.451) rotate(90.0757) scale(117.526 61.9205)">
<stop stop-opacity="0"/>
<stop offset="0.221563"/>
<stop offset="1" stop-opacity="0"/>
</radialGradient>
<linearGradient id="paint57_linear_1380_16677" x1="431.67" y1="158.43" x2="419.256" y2="158.43" gradientUnits="userSpaceOnUse">
<stop stop-color="white" stop-opacity="0"/>
<stop offset="1" stop-color="white"/>
</linearGradient>
<linearGradient id="paint58_linear_1380_16677" x1="12.4144" y1="32.4473" x2="-7.82937e-07" y2="32.4473" gradientUnits="userSpaceOnUse">
<stop stop-color="white" stop-opacity="0"/>
<stop offset="1" stop-color="white"/>
</linearGradient>
<linearGradient id="paint59_linear_1380_16677" x1="419.255" y1="124.707" x2="445.015" y2="124.707" gradientUnits="userSpaceOnUse">
<stop stop-color="#E3E3E3"/>
<stop offset="0.21988" stop-color="#99C2FF"/>
<stop offset="0.512048" stop-color="#F48DA5"/>
<stop offset="0.75" stop-color="#A699DC"/>
<stop offset="1" stop-color="#E3E3E3"/>
</linearGradient>
<linearGradient id="paint60_linear_1380_16677" x1="419.255" y1="124.707" x2="445.015" y2="124.707" gradientUnits="userSpaceOnUse">
<stop stop-color="#E3E3E3"/>
<stop offset="0.21988" stop-color="#99C2FF"/>
<stop offset="0.512048" stop-color="#F48DA5"/>
<stop offset="0.75" stop-color="#A699DC"/>
<stop offset="1" stop-color="#E3E3E3"/>
</linearGradient>
<radialGradient id="paint61_radial_1380_16677" cx="0" cy="0" r="1" gradientUnits="userSpaceOnUse" gradientTransform="translate(82.5184 298.739) rotate(90.0757) scale(117.526 61.9205)">
<stop stop-opacity="0"/>
<stop offset="0.221563"/>
<stop offset="1" stop-opacity="0"/>
</radialGradient>
<linearGradient id="paint62_linear_1380_16677" x1="81.8978" y1="332.718" x2="69.4834" y2="332.718" gradientUnits="userSpaceOnUse">
<stop stop-color="white" stop-opacity="0"/>
<stop offset="1" stop-color="white"/>
</linearGradient>
<linearGradient id="paint63_linear_1380_16677" x1="12.4144" y1="32.4473" x2="-7.82937e-07" y2="32.4473" gradientUnits="userSpaceOnUse">
<stop stop-color="white" stop-opacity="0"/>
<stop offset="1" stop-color="white"/>
</linearGradient>
<linearGradient id="paint64_linear_1380_16677" x1="69.483" y1="298.995" x2="95.2429" y2="298.995" gradientUnits="userSpaceOnUse">
<stop stop-color="#E3E3E3"/>
<stop offset="0.21988" stop-color="#99C2FF"/>
<stop offset="0.512048" stop-color="#F48DA5"/>
<stop offset="0.75" stop-color="#A699DC"/>
<stop offset="1" stop-color="#E3E3E3"/>
</linearGradient>
<linearGradient id="paint65_linear_1380_16677" x1="69.483" y1="298.995" x2="95.2429" y2="298.995" gradientUnits="userSpaceOnUse">
<stop stop-color="#E3E3E3"/>
<stop offset="0.21988" stop-color="#99C2FF"/>
<stop offset="0.512048" stop-color="#F48DA5"/>
<stop offset="0.75" stop-color="#A699DC"/>
<stop offset="1" stop-color="#E3E3E3"/>
</linearGradient>
<radialGradient id="paint66_radial_1380_16677" cx="0" cy="0" r="1" gradientUnits="userSpaceOnUse" gradientTransform="translate(194.795 424.41) rotate(90.1993) scale(125.591 174.328)">
<stop stop-opacity="0"/>
<stop offset="0.221563"/>
<stop offset="1" stop-opacity="0"/>
</radialGradient>
<linearGradient id="paint67_linear_1380_16677" x1="193.047" y1="460.722" x2="158.096" y2="460.722" gradientUnits="userSpaceOnUse">
<stop stop-color="white" stop-opacity="0"/>
<stop offset="1" stop-color="white"/>
</linearGradient>
<linearGradient id="paint68_linear_1380_16677" x1="34.9512" y1="34.6739" x2="-2.20426e-06" y2="34.6739" gradientUnits="userSpaceOnUse">
<stop stop-color="white" stop-opacity="0"/>
<stop offset="1" stop-color="white"/>
</linearGradient>
<linearGradient id="paint69_linear_1380_16677" x1="158.096" y1="425.794" x2="230.646" y2="425.794" gradientUnits="userSpaceOnUse">
<stop stop-color="#E3E3E3"/>
<stop offset="0.21988" stop-color="#99C2FF"/>
<stop offset="0.512048" stop-color="#F48DA5"/>
<stop offset="0.75" stop-color="#A699DC"/>
<stop offset="1" stop-color="#E3E3E3"/>
</linearGradient>
<linearGradient id="paint70_linear_1380_16677" x1="158.096" y1="425.794" x2="230.646" y2="425.794" gradientUnits="userSpaceOnUse">
<stop stop-color="#E3E3E3"/>
<stop offset="0.21988" stop-color="#99C2FF"/>
<stop offset="0.512048" stop-color="#F48DA5"/>
<stop offset="0.75" stop-color="#A699DC"/>
<stop offset="1" stop-color="#E3E3E3"/>
</linearGradient>
</defs>
</svg>
