<svg width="589" height="556" viewBox="0 0 589 556" fill="none" xmlns="http://www.w3.org/2000/svg">
<circle cx="63.9624" cy="63.9624" r="63.9624" transform="matrix(-0.969387 0.245539 0.245539 0.969387 516.813 211.754)" fill="#382964"/>
<path d="M406.26 304.228C414.934 338.472 451.619 358.721 485.863 350.047C520.107 341.374 542.729 306.102 534.055 271.858C542.891 303.427 414.522 333.243 406.26 304.228Z" fill="#EBE5FF"/>
<path d="M406.618 305.648C415.292 339.892 451.977 360.142 486.221 351.468C520.465 342.794 543.087 307.523 534.413 273.279C543.249 304.848 414.88 334.663 406.618 305.648Z" fill="url(#paint0_radial_2667_16380)"/>
<path d="M405.612 301.53C409.927 328.66 538.515 299.203 533.341 269.178C524.407 233.906 488.572 212.555 453.3 221.489C418.029 230.423 396.678 266.259 405.612 301.53Z" fill="#761DBC"/>
<path d="M405.612 301.53C409.927 328.66 538.515 299.203 533.341 269.178C524.407 233.906 488.572 212.555 453.3 221.489C418.029 230.423 396.678 266.259 405.612 301.53Z" fill="url(#paint1_radial_2667_16380)"/>
<path opacity="0.3" d="M440.864 236.712C447.314 239.239 456.625 240.891 471.052 257.858C472.071 259.057 471.647 260.806 470.165 261.335C462.061 264.227 440.675 271.399 428.71 282.436C427.979 283.11 426.912 283.333 426.035 282.864C410.013 274.304 420.896 247.595 438.692 236.858C439.348 236.462 440.151 236.432 440.864 236.712Z" fill="url(#paint2_linear_2667_16380)"/>
<ellipse cx="15.9888" cy="22.4601" rx="15.9888" ry="22.4601" transform="matrix(-0.995559 -0.0941434 -0.0941434 0.995559 528.219 272.58)" fill="#261C47"/>
<ellipse cx="12.8919" cy="18.1098" rx="12.8919" ry="18.1098" transform="matrix(-0.995559 -0.0941434 -0.0941434 0.995559 520.234 278.765)" fill="#362323"/>
<ellipse cx="15.9888" cy="22.4601" rx="15.9888" ry="22.4601" transform="matrix(-0.995559 -0.0941434 -0.0941434 0.995559 526.799 272.939)" fill="#382964"/>
<ellipse cx="7.53378" cy="10.2617" rx="7.53378" ry="10.2617" transform="matrix(-0.995559 -0.0941434 -0.0941434 0.995559 518.507 284.54)" fill="#7B7B7B"/>
<ellipse cx="11.5016" cy="15.6663" rx="11.5016" ry="15.6663" transform="matrix(-0.995559 -0.0941434 -0.0941434 0.995559 521.898 279.3)" fill="#9D83EB"/>
<path d="M510.448 278.217C516.772 278.815 521.239 286.283 520.424 294.897C519.771 301.804 515.921 307.35 511.16 308.969C510.426 309.092 509.676 309.123 508.918 309.051C502.595 308.453 498.128 300.985 498.943 292.371C499.596 285.464 503.446 279.918 508.207 278.299C508.941 278.176 509.691 278.145 510.448 278.217Z" fill="#E3DCFA"/>
<ellipse cx="7.23215" cy="9.8509" rx="7.23215" ry="9.8509" transform="matrix(-0.995559 -0.0941434 -0.0941434 0.995559 518.52 284.328)" fill="#9D83EB"/>
<path d="M511.794 283.528C515.77 283.904 518.579 288.599 518.066 294.016C517.656 298.359 515.235 301.846 512.241 302.864C511.78 302.942 511.308 302.961 510.832 302.916C506.855 302.54 504.047 297.844 504.559 292.428C504.97 288.085 507.391 284.597 510.384 283.579C510.846 283.501 511.317 283.482 511.794 283.528Z" fill="#E3DCFA"/>
<path opacity="0.2" d="M366.102 415.689C366.102 417.116 367.244 418.258 368.672 418.258C370.1 418.258 371.289 417.116 371.289 415.689C371.289 414.261 370.1 413.071 368.672 413.071C367.244 413.071 366.102 414.261 366.102 415.689ZM363.2 415.689C363.2 412.643 365.627 410.169 368.672 410.169C371.717 410.169 374.192 412.643 374.192 415.689C374.192 418.734 371.717 421.161 368.672 421.161C365.627 421.161 363.2 418.734 363.2 415.689ZM356.633 413.785C356.49 414.451 356.205 416.783 356.205 417.973C356.205 420.78 356.205 424.825 356.205 427.585C356.205 431.439 356.205 445.62 356.205 449.617C356.205 452.377 354.587 454.09 351.208 454.09C348.686 454.09 345.879 453.995 343.499 453.709L342.928 447.809C344.927 448.189 347.021 448.332 348.21 448.332C349.447 448.332 349.876 447.904 349.923 446.667C349.971 444.858 349.971 429.821 349.971 427.585C349.971 425.919 349.971 420.828 349.971 417.925C349.971 416.688 349.733 414.642 349.59 413.785H356.633ZM333.316 421.399C334.744 421.589 336.409 421.732 337.884 421.732C340.787 421.732 363.866 421.732 367.292 421.732C368.624 421.732 370.671 421.589 371.955 421.446V427.68C370.48 427.537 368.624 427.49 367.34 427.49C363.913 427.49 341.025 427.49 337.884 427.49C336.457 427.49 334.648 427.537 333.316 427.68V421.399ZM345.45 434.294C343.261 438.482 338.836 444.716 336.266 447.523L331.079 444.05C334.268 441.004 338.075 435.77 340.026 431.725L345.45 434.294ZM365.864 431.582C368.291 434.628 372.098 440.623 374.002 444.097L368.434 447.19C366.388 443.098 363.009 437.34 360.678 434.39L365.864 431.582ZM398.127 414.071C397.604 415.308 396.985 416.926 396.557 417.973C395.748 420.352 394.273 423.873 393.036 426.3C391.132 430.059 387.897 434.628 384.756 437.435L378.76 433.819C382.186 431.297 385.232 427.014 387.04 424.016C388.325 421.827 389.229 419.305 389.8 417.497C390.323 415.926 390.704 414.118 390.799 412.643L398.127 414.071ZM390.609 421.446C394.416 421.446 412.498 421.446 415.782 421.446C416.971 421.446 419.16 421.351 420.73 421.113V427.585C418.922 427.442 416.876 427.442 415.782 427.442C412.451 427.442 394.416 427.442 390.133 427.442L390.609 421.446ZM409.215 424.873C408.882 438.91 403.885 448.189 394.701 453.947L388.277 449.665C389.99 448.951 391.656 447.999 392.75 447.047C398.175 442.907 402.41 436.341 402.6 424.873H409.215ZM432.532 416.402C433.912 416.498 435.434 416.593 437.147 416.593C441.24 416.593 455.849 416.593 460.084 416.593C461.654 416.593 463.224 416.498 464.319 416.402V422.303C463.082 422.255 461.797 422.208 460.084 422.208C455.849 422.208 439.479 422.208 437.147 422.208C435.434 422.208 433.912 422.255 432.532 422.303V416.402ZM448.901 433.152C448.901 435.341 448.901 441.67 448.901 443.336C448.901 445.905 450.471 446.857 454.326 446.857C458.561 446.857 462.748 446.619 466.603 446.191L466.175 452.662C463.082 452.853 457.657 452.996 453.231 452.996C444.523 452.996 442.382 450.045 442.382 445.239C442.382 442.098 442.382 435.722 442.382 432.914C442.382 431.106 442.382 422.351 442.382 420.78H448.901C448.901 422.255 448.901 432.677 448.901 433.152ZM429.391 430.012C430.723 430.107 433.15 430.297 434.578 430.297C438.956 430.297 460.084 430.297 463.224 430.297C464.224 430.297 466.65 430.155 467.888 430.059V436.198C466.603 436.008 464.462 436.055 463.415 436.055C459.989 436.055 438.908 436.055 434.578 436.055C433.245 436.055 430.819 436.15 429.391 436.245V430.012ZM483.448 415.165C486.732 417.402 492.918 422.351 495.725 425.253L490.871 430.202C488.397 427.537 482.401 422.351 478.928 419.971L483.448 415.165ZM477.452 446.857C484.923 445.81 491.062 443.383 495.678 440.671C503.815 435.817 510.001 428.584 513.046 422.16L516.71 428.822C513.141 435.294 506.813 441.861 499.151 446.476C494.298 449.379 488.159 451.996 481.497 453.138L477.452 446.857Z" fill="white"/>
<path d="M439.49 209.61C467.463 314.006 405.51 421.312 301.114 449.285C196.717 477.258 85.3301 414.706 57.3572 310.31C29.3844 205.914 95.4188 99.2064 199.815 71.2335C304.211 43.2606 411.517 105.214 439.49 209.61Z" fill="#382964"/>
<path d="M444.095 203.738C472.068 308.134 404.343 416.987 299.947 444.96C195.551 472.933 82.4727 412.526 54.4998 308.13C54.208 305.062 55.297 305.287 57.7074 309.611C58.4072 320.873 64.7053 325.356 66.9539 327.805C138.058 387.632 463.638 286.287 444.095 203.738Z" fill="#EBE5FF"/>
<path d="M445.257 208.067C473.23 312.463 405.505 421.316 301.109 449.288C196.712 477.261 83.6343 416.855 55.6615 312.458C79.2075 409.954 466.52 297.884 445.257 208.067Z" fill="url(#paint3_radial_2667_16380)"/>
<path d="M441.796 195.568C470.786 274.456 83.4215 387.808 52.4014 299.905C23.5893 192.377 87.4013 81.8514 194.93 53.0393C302.458 24.2272 412.984 88.0392 441.796 195.568Z" fill="#761DBC"/>
<path d="M441.796 195.568C470.786 274.456 83.4215 387.808 52.4014 299.905C23.5893 192.377 87.4013 81.8514 194.93 53.0393C302.458 24.2272 412.984 88.0392 441.796 195.568Z" fill="#FF3880"/>
<path d="M441.796 195.568C470.786 274.456 83.4215 387.808 52.4014 299.905C23.5893 192.377 87.4013 81.8514 194.93 53.0393C302.458 24.2272 412.984 88.0392 441.796 195.568Z" fill="#761DBC" fill-opacity="0.3"/>
<path d="M441.796 195.568C470.786 274.456 83.4215 387.808 52.4014 299.905C23.5893 192.377 87.4013 81.8514 194.93 53.0393C302.458 24.2272 412.984 88.0392 441.796 195.568Z" fill="url(#paint4_radial_2667_16380)" fill-opacity="0.5"/>
<path opacity="0.9" d="M251.304 69.0005C248.47 88.535 262.862 127.23 265.4 152.48C265.838 156.835 269.558 160.525 273.807 161.575C287.283 164.905 306.566 175.843 319.129 183.892C322.453 186.021 326.88 185.335 329.299 182.216C339.208 169.436 349.263 156.045 355.296 142.934C356.715 139.851 355.545 136.298 352.965 134.092C340.71 123.614 335.297 110.014 337.847 92.5699C338.309 89.4047 337.012 86.1673 334.225 84.5986C315.836 74.2509 290.015 65.0654 257.622 64.184C254.563 64.1008 251.743 65.9722 251.304 69.0005Z" fill="url(#paint5_linear_2667_16380)"/>
<ellipse cx="150.456" cy="330.105" rx="48.9179" ry="68.717" transform="rotate(-34.6157 150.456 330.105)" fill="#261C47"/>
<ellipse cx="165.653" cy="329.127" rx="39.443" ry="55.4072" transform="rotate(-34.6157 165.653 329.127)" fill="#362323"/>
<ellipse cx="154.785" cy="328.945" rx="48.9179" ry="68.717" transform="rotate(-34.6157 154.785 328.945)" fill="#382964"/>
<ellipse cx="151.76" cy="331.522" rx="23.0497" ry="31.396" transform="rotate(-34.6157 151.76 331.522)" fill="#7B7B7B"/>
<ellipse cx="154.264" cy="329.304" rx="35.1894" ry="47.9314" transform="rotate(-34.6157 154.264 329.304)" fill="#9D83EB"/>
<path d="M127.033 289.858C111.039 300.899 110.263 327.509 125.301 349.295C137.359 366.764 155.923 375.826 171.053 373.04C173.198 372.273 175.245 371.234 177.161 369.912C193.155 358.872 193.93 332.261 178.893 310.475C166.835 293.006 148.271 283.944 133.141 286.73C130.996 287.497 128.949 288.536 127.033 289.858Z" fill="#E3DCFA"/>
<ellipse cx="149.937" cy="330.463" rx="22.1269" ry="30.139" transform="rotate(-34.6157 149.937 330.463)" fill="#9D83EB"/>
<path d="M131.37 306.048C121.312 312.99 120.825 329.723 130.281 343.422C137.863 354.406 149.536 360.104 159.049 358.352C160.398 357.87 161.685 357.217 162.89 356.385C172.947 349.443 173.434 332.711 163.979 319.012C156.397 308.028 144.724 302.329 135.21 304.081C133.861 304.564 132.574 305.217 131.37 306.048Z" fill="#E3DCFA"/>
<g opacity="0.45" filter="url(#filter0_f_2667_16380)">
<path d="M439.875 457.853C435.338 452.074 438.203 423.355 437.219 409.467L496.74 464.419L466.062 508.168C457.485 508.209 453.022 509.086 446.309 505.222C439.597 501.357 442.227 460.848 439.875 457.853Z" fill="#B24899"/>
</g>
<path d="M448.733 477.507C444.195 471.728 447.06 443.009 446.076 429.121L505.597 484.073L474.92 527.822C466.342 527.863 461.879 528.74 455.167 524.876C448.454 521.011 451.085 480.502 448.733 477.507Z" fill="#8A398C"/>
<path d="M454.701 478.007C450.163 472.228 447.06 443.009 446.076 429.121L505.597 484.073L474.92 527.822C470.071 513.625 459.239 483.786 454.701 478.007Z" fill="url(#paint6_linear_2667_16380)"/>
<path d="M448.211 359.676L429.997 313.319L576.132 318.572L563.34 407.197L538.149 411.382L448.211 359.676Z" fill="#8A398C"/>
<path d="M453.37 356.47L429.997 313.319L576.132 318.572L563.34 407.197L453.37 356.47Z" fill="url(#paint7_linear_2667_16380)"/>
<g filter="url(#filter1_f_2667_16380)">
<path d="M425.833 365.376C423.699 363.228 410.047 359.309 403.488 357.618L414.275 374.808C426.2 379.376 449.358 390.156 444.907 387.465C440.455 384.774 428.501 368.061 425.833 365.376Z" fill="#B24899"/>
</g>
<path d="M428.018 368.677C425.884 366.529 412.232 362.61 405.673 360.919L416.459 378.109C428.384 382.677 451.543 393.457 447.091 390.766C442.64 388.075 430.685 371.362 428.018 368.677Z" fill="#892FA7"/>
<path d="M379.212 341.45C377.415 335.148 371.367 339.956 368.568 343.148L378.516 351.222C379.497 350.59 381.008 347.751 379.212 341.45Z" fill="#8D31A6"/>
<path d="M387.157 302.246C386.045 300.418 378.243 297.763 374.48 296.665L379.662 311.733C386.398 315.105 399.345 323.41 396.899 321.245C394.454 319.079 388.548 304.531 387.157 302.246Z" fill="#8D31A6"/>
<path d="M153.376 115.741C156.239 116.099 159.906 116.367 162.948 116.367C168.584 116.367 193.633 116.367 198.911 116.367C201.863 116.367 205.441 116.099 208.483 115.741V127.281C205.441 127.102 201.952 126.924 198.911 126.924C193.633 126.924 168.584 126.924 162.948 126.924C159.906 126.924 156.06 127.102 153.376 127.281V115.741ZM142.909 138.553C145.593 138.911 148.724 139.09 151.497 139.09C157.133 139.09 204.815 139.09 210.093 139.09C211.972 139.09 215.908 139.001 218.323 138.553V150.183C215.997 150.093 212.598 150.004 210.093 150.004C204.815 150.004 157.133 150.004 151.497 150.004C148.903 150.004 145.414 150.093 142.909 150.272V138.553ZM188.712 144.815C188.712 156.535 186.655 165.48 182.808 172.906C179.766 179.168 172.789 186.056 164.916 190.171L154.36 182.567C160.712 180.062 167.063 174.963 170.552 169.685C175.025 162.886 176.277 154.477 176.277 144.905L188.712 144.815Z" fill="#FFBA07"/>
<path d="M230.4 149.557C246.413 145.442 259.475 139.627 269.494 133.454C278.619 127.818 288.817 118.872 294.632 111.805L304.294 120.93C296.153 129.16 285.239 137.569 274.683 143.921C264.574 149.915 250.081 156.624 235.947 160.829L230.4 149.557ZM267.615 139.269L280.319 136.227V176.573C280.319 180.51 280.497 186.056 281.124 188.293H266.9C267.257 186.146 267.615 180.51 267.615 176.573V139.269Z" fill="#FFBA07"/>
<path d="M399.478 127.908C398.226 129.339 397.152 130.591 396.437 131.665C389.459 143.205 376.219 159.308 362.353 169.506L353.407 161.276C365.215 153.046 375.235 140.879 379.887 132.649C372.014 132.649 339.451 132.649 332.652 132.649C328.984 132.649 324.154 133.096 322.275 133.365V120.751C324.69 121.198 329.521 121.645 332.652 121.645C338.288 121.645 372.64 121.645 382.213 121.645C385.701 121.645 388.654 121.288 390.622 120.661L399.478 127.908ZM352.333 170.848C347.055 165.57 337.93 157.429 332.652 153.672L342.045 145.978C346.876 149.646 355.822 156.892 362.621 163.423C368.525 169.148 375.593 176.573 379.887 181.762L369.33 190.171C365.663 185.161 358.148 176.752 352.333 170.848Z" fill="#FFBA07"/>
<path d="M411.913 142.847C415.223 143.116 421.664 143.473 426.316 143.473C436.872 143.473 466.394 143.473 474.356 143.473C478.56 143.473 482.496 143.026 484.912 142.847V156.982C482.765 156.892 478.202 156.445 474.445 156.445C466.304 156.445 436.872 156.445 426.316 156.445C421.306 156.445 415.313 156.713 411.913 156.982V142.847Z" fill="#FFBA07"/>
<defs>
<filter id="filter0_f_2667_16380" x="422.518" y="394.772" width="88.9179" height="128.205" filterUnits="userSpaceOnUse" color-interpolation-filters="sRGB">
<feFlood flood-opacity="0" result="BackgroundImageFix"/>
<feBlend mode="normal" in="SourceGraphic" in2="BackgroundImageFix" result="shape"/>
<feGaussianBlur stdDeviation="7.34776" result="effect1_foregroundBlur_2667_16380"/>
</filter>
<filter id="filter1_f_2667_16380" x="396.49" y="350.62" width="55.9747" height="44.2677" filterUnits="userSpaceOnUse" color-interpolation-filters="sRGB">
<feFlood flood-opacity="0" result="BackgroundImageFix"/>
<feBlend mode="normal" in="SourceGraphic" in2="BackgroundImageFix" result="shape"/>
<feGaussianBlur stdDeviation="3.49893" result="effect1_foregroundBlur_2667_16380"/>
</filter>
<radialGradient id="paint0_radial_2667_16380" cx="0" cy="0" r="1" gradientUnits="userSpaceOnUse" gradientTransform="translate(453.749 291.196) rotate(79.7498) scale(74.8354 133.358)">
<stop stop-color="white"/>
<stop offset="0.111453" stop-color="white"/>
<stop offset="0.885942" stop-color="#673EDF"/>
</radialGradient>
<radialGradient id="paint1_radial_2667_16380" cx="0" cy="0" r="1" gradientUnits="userSpaceOnUse" gradientTransform="translate(459.381 224.198) rotate(127.112) scale(82.9254 88.551)">
<stop stop-color="#FF38C7"/>
<stop offset="1" stop-color="#FF38C7" stop-opacity="0"/>
</radialGradient>
<linearGradient id="paint2_linear_2667_16380" x1="421.993" y1="244.901" x2="437.291" y2="291.701" gradientUnits="userSpaceOnUse">
<stop stop-color="#FF9892"/>
<stop offset="1" stop-color="#FFA39D" stop-opacity="0"/>
</linearGradient>
<radialGradient id="paint3_radial_2667_16380" cx="0" cy="0" r="1" gradientUnits="userSpaceOnUse" gradientTransform="translate(297.821 239.851) rotate(71.0366) scale(228.96 408.012)">
<stop stop-color="white"/>
<stop offset="0.371006" stop-color="white"/>
<stop offset="0.922292" stop-color="#673EDF"/>
</radialGradient>
<radialGradient id="paint4_radial_2667_16380" cx="0" cy="0" r="1" gradientUnits="userSpaceOnUse" gradientTransform="translate(182.738 69.352) rotate(23.6747) scale(253.712 270.923)">
<stop stop-color="#FF38C7"/>
<stop offset="1" stop-color="#FF38C7" stop-opacity="0"/>
</radialGradient>
<linearGradient id="paint5_linear_2667_16380" x1="306.982" y1="60.881" x2="341.358" y2="235.905" gradientUnits="userSpaceOnUse">
<stop stop-color="#FF9892"/>
<stop offset="1" stop-color="#FFA39D" stop-opacity="0"/>
</linearGradient>
<linearGradient id="paint6_linear_2667_16380" x1="480.021" y1="436.025" x2="461.891" y2="525.172" gradientUnits="userSpaceOnUse">
<stop stop-color="#B74C97"/>
<stop offset="1" stop-color="#8D31A6"/>
</linearGradient>
<linearGradient id="paint7_linear_2667_16380" x1="502.762" y1="309.759" x2="507.662" y2="409.921" gradientUnits="userSpaceOnUse">
<stop stop-color="#B74C97"/>
<stop offset="1" stop-color="#8D31A6"/>
</linearGradient>
</defs>
</svg>
